<svg width="81" height="65" viewBox="0 0 81 65" fill="none" xmlns="http://www.w3.org/2000/svg">
<path d="M39.462 64.538C39.4361 64.5769 39.5528 64.5121 39.462 64.538V64.538Z" fill="#A5006A"/>
<path d="M78.085 12.3455C69.4258 -3.32283 49.2563 -0.260443 40.584 12.2927C32.3736 -0.577242 12.3889 -4.37882 3.14892 10.9595C-10.0906 32.9242 24.8232 53.3973 39.4092 64.5513C39.4356 64.5381 39.4488 64.5381 39.462 64.5381C39.462 64.5249 39.4884 64.5117 39.5148 64.4985C51.9359 54.1761 90.5194 34.7854 78.085 12.3455ZM38.7888 19.8431C39.6072 19.5659 39.4092 18.8399 39.4752 18.2063C39.5016 17.9027 39.726 17.6255 39.8448 17.3483C39.9768 17.6255 40.2408 17.9291 40.2144 18.1931C40.122 19.2623 40.3068 20.0279 41.574 20.1467C41.8248 20.1731 42.0756 20.4107 42.3132 20.5691C44.9135 22.4435 47.3819 28.0138 47.0519 31.459C42.2604 29.7034 37.4556 29.7034 32.4924 31.4854C32.8224 28.5154 33.39 25.8095 34.908 23.4071C35.8716 21.8759 36.954 20.4503 38.7888 19.8431ZM47.7647 39.5374C47.7515 40.3558 47.1443 40.963 46.3391 40.9498C45.5207 40.9366 44.9532 40.3162 44.9795 39.4846C45.006 38.7058 45.6923 38.0062 46.4051 38.0194C47.1311 38.0326 47.7779 38.7454 47.7647 39.5374ZM41.6268 34.1122C41.64 35.023 40.8612 35.8018 39.8976 35.8018C38.9208 35.8018 38.2476 35.155 38.2212 34.2178C38.208 33.2278 39.0132 32.3962 39.9768 32.4226C40.8348 32.4358 41.6136 33.241 41.6268 34.1122ZM33.9312 41.2138C33.8388 41.6758 33.2844 42.2698 32.8356 42.3754C32.1096 42.5338 31.6872 41.9794 31.476 40.9498C31.8984 40.633 32.2944 40.0918 32.7564 40.039C33.456 39.9466 34.0764 40.4878 33.9312 41.2138ZM26.6712 31.1686C25.7736 27.4198 31.3308 20.9123 35.9904 20.5559C32.8488 23.5787 31.5948 27.3011 31.0668 31.4194C30.1956 31.261 29.5092 31.0762 28.7964 31.0366C28.0968 30.997 27.384 31.129 26.6712 31.1686ZM49.1243 44.989C49.0979 45.2134 48.9659 45.4114 48.8867 45.6226C48.7811 45.6226 48.6623 45.6226 48.5567 45.6226C48.4775 44.7118 48.3983 43.8142 48.3323 42.9034C48.2399 42.8902 48.1343 42.877 48.0419 42.8506C47.9627 43.2466 47.8307 43.6558 47.8175 44.0518C47.7911 45.847 47.8307 47.6422 47.7911 49.4374C47.7779 49.7542 47.5007 50.0578 47.3423 50.3614C47.1575 50.0446 46.8407 49.741 46.8143 49.411C46.7483 48.4474 46.8143 47.4706 46.7615 46.507C46.7483 46.2562 46.4843 46.0186 46.3391 45.781C46.2335 46.0054 46.0487 46.243 46.0355 46.4674C46.0091 47.4706 46.0751 48.4738 45.9959 49.477C45.9695 49.7938 45.5735 50.071 45.3491 50.3746C45.1907 50.071 44.8872 49.7674 44.874 49.4506C44.8476 47.5894 44.8607 45.715 44.9003 43.8538C44.9135 43.1278 44.7551 42.613 44.1744 42.0718C43.4616 41.425 42.96 40.5406 42.366 39.7618C42.2868 39.8014 42.2208 39.841 42.1416 39.8806C42.4452 40.963 42.7356 42.0586 43.0788 43.141C43.29 43.801 43.0788 44.1442 42.4188 44.1046C41.6004 44.065 41.4684 44.5138 41.4816 45.187C41.4948 46.5466 41.5212 47.9194 41.442 49.279C41.4156 49.6486 41.0724 50.005 40.8612 50.3746C40.6764 50.005 40.3596 49.6486 40.3332 49.279C40.2672 47.8402 40.3332 46.4146 40.2936 44.9758C40.2936 44.725 40.056 44.4742 39.924 44.2102C39.8052 44.461 39.5808 44.6986 39.5676 44.9494C39.5412 46.3882 39.594 47.827 39.528 49.2526C39.5148 49.6354 39.1584 49.9918 38.9604 50.3614C38.7624 50.005 38.4192 49.6618 38.3928 49.2922C38.3268 47.9326 38.3532 46.573 38.3664 45.2002C38.3796 44.527 38.1948 44.0914 37.416 44.1046C36.7296 44.1178 36.5448 43.7878 36.756 43.1278C37.1124 41.9794 37.416 40.8046 37.7592 39.5506C37.548 39.6034 37.416 39.5902 37.3764 39.643C36.3468 40.9762 35.304 42.283 34.3404 43.6558C34.0896 43.999 34.0104 44.527 33.9972 44.9626C33.9576 46.507 33.9972 48.0514 33.9576 49.5958C33.9576 49.8466 33.72 50.0974 33.588 50.335C33.4428 50.0842 33.2052 49.8466 33.192 49.5958C33.1392 48.8434 33.192 48.091 33.1524 47.3386C33.1392 47.0482 32.994 46.7578 32.8092 46.177C32.0172 47.695 32.9808 49.2394 32.07 50.3614C31.9116 50.3482 31.7532 50.3482 31.5948 50.335C31.5948 48.2362 31.5948 46.1506 31.5948 44.0518C31.4364 44.0518 31.2912 44.0518 31.1328 44.0386C31.0668 44.7646 31.0008 45.5038 30.9216 46.2298C30.816 46.2298 30.7104 46.2298 30.6048 46.2298C30.2088 45.385 30.3012 44.4346 30.5388 43.603C30.6312 43.2862 31.476 42.943 31.938 42.9958C33.7596 43.207 34.7892 42.415 35.5548 40.831C36.1884 39.511 37.086 38.3362 37.878 37.0954C38.2476 36.5014 38.6832 36.2242 39.3828 36.6862C39.6072 36.8314 40.0824 36.871 40.2672 36.739C41.112 36.1186 41.6268 36.5938 42.0492 37.2274C42.762 38.257 43.4484 39.313 44.0556 40.4086C44.5572 41.3194 45.2435 41.6362 46.2467 41.6362C49.2959 41.6626 49.4939 41.9134 49.1243 44.989ZM52.6619 31.0234C51.2231 31.1026 49.8239 31.1818 48.2663 31.261C47.5799 27.4331 46.6031 23.5523 43.3428 20.6615C47.3159 20.2523 53.4803 27.3275 52.6619 31.0234Z" fill="#A5006A"/>
</svg>
