<svg width="77" height="58" viewBox="0 0 77 58" fill="none" xmlns="http://www.w3.org/2000/svg">
<path d="M49.6617 3.90382C49.6063 3.93539 49.5803 4.00272 49.5993 4.06305C49.6189 4.12337 49.6786 4.16336 49.7431 4.15494C49.7578 4.15354 51.1776 4.00763 53.5134 4.43903C62.6639 6.14075 67.7325 12.2883 67.7838 12.3493C67.8167 12.3907 67.8707 12.4089 67.9226 12.3949C67.9739 12.3816 68.0131 12.3388 68.0223 12.2869C68.0244 12.2679 68.3793 10.3018 70.2059 8.47729C72.0142 6.66895 73.8422 6.1141 73.859 6.10849C73.9102 6.09376 73.9467 6.05237 73.9551 6.00116C73.9636 5.95066 73.9432 5.89875 73.9011 5.86789C73.8394 5.8244 67.687 1.47118 60.7201 1.40594C54.2057 1.34281 49.7059 3.87787 49.6617 3.90382Z" fill="#00AA55"/>
<path d="M49.3151 4.29889C49.2702 4.3052 49.2323 4.33115 49.2113 4.37114C49.1909 4.41112 49.1909 4.45882 49.2127 4.4981L52.8778 11.2208C53.5049 12.3733 57.553 19.1458 57.5936 19.2146C57.6203 19.2588 57.6694 19.2854 57.7227 19.2798C57.7725 19.2763 57.8174 19.2419 57.8371 19.1942C57.8385 19.19 58.0026 18.7748 58.7216 17.9225C62.3348 13.6408 67.139 13.8639 67.1874 13.866C67.2379 13.8688 67.2891 13.8429 67.3137 13.798C67.3389 13.7531 67.3354 13.6956 67.3053 13.6535C67.2786 13.6135 64.4903 9.65027 59.7682 7.11382C53.6732 3.82961 49.3593 4.29327 49.3151 4.29889Z" fill="#FFCC00"/>
<path d="M48.8115 4.61157C48.794 4.63192 48.3829 5.13416 48.0322 5.76757C43.0203 14.8879 46.2765 23.8531 46.3094 23.9429C46.327 23.9927 46.3733 24.0271 46.4259 24.0299C46.4792 24.0341 46.5297 24.0054 46.5563 23.9598C46.5577 23.9548 46.8236 23.4737 47.6232 22.7673C51.3529 19.4662 56.3774 19.9531 56.4272 19.9587C56.4756 19.9643 56.5247 19.9418 56.5527 19.9012C56.5808 19.8598 56.5843 19.8072 56.5612 19.7616L52.8357 12.4994C52.1813 11.2228 49.0689 4.70417 49.0374 4.63823C49.0184 4.59684 48.9784 4.56808 48.9329 4.56247C48.8873 4.55686 48.841 4.5765 48.8115 4.61157Z" fill="#0099CC"/>
<path d="M48.343 4.53729C48.2917 4.56464 43.1248 7.30662 39.5334 13.4471C35.6964 20.0106 36.5129 25.4834 36.5221 25.5374C36.5305 25.5872 36.5634 25.6272 36.6104 25.6433C36.656 25.6601 36.7079 25.6496 36.7458 25.6167C36.7648 25.5998 38.7758 23.8469 42.2501 23.8567C44.2612 23.8602 44.9872 24.2685 44.9956 24.2727C45.0454 24.3014 45.1057 24.2965 45.1506 24.26C45.1815 24.2334 45.199 24.1955 45.199 24.1555C45.199 24.1408 45.1969 24.1268 45.1913 24.112C45.1752 24.0657 44.3334 21.5531 44.3334 17.8698C44.3334 14.6719 44.9676 10.5929 47.3265 6.48031C47.8674 5.54808 48.5057 4.74983 48.5113 4.74141C48.5309 4.71686 48.5408 4.68669 48.5408 4.65793C48.5408 4.62707 48.5309 4.59621 48.5092 4.57095C48.4692 4.52185 48.4005 4.50782 48.343 4.53729Z" fill="#EE2222"/>
<path d="M61.2975 41.2452C60.1029 40.8874 58.4215 39.918 56.7289 38.6638C57.0544 38.1321 57.3476 37.5562 57.591 36.9614C58.1248 35.6532 58.3717 34.9889 59.5853 34.8661V34.3036C58.9259 34.3351 58.2413 34.3457 57.5489 34.3457C56.8896 34.3457 56.2239 34.3351 55.5554 34.3036V34.8661C56.0085 34.9721 56.4862 35.0121 56.9359 35.1467C56.9359 35.6679 56.6427 36.5861 56.388 37.2055C56.2534 37.5043 56.1039 37.7849 55.9426 38.0528C54.391 36.8085 52.9081 35.3466 51.8952 33.9108C53.3542 33.224 55.0588 32.3921 55.0588 30.6336C55.0588 28.9522 53.8453 28.0796 52.1463 28.0796C50.2868 28.0796 48.7303 29.4411 48.7303 31.1961C48.7303 32.0786 48.9877 32.9827 49.4254 33.8715C47.7447 34.7195 46.6105 35.7535 46.6105 37.6881C46.6105 40.5051 48.886 41.8807 51.4196 41.8807C53.2511 41.8807 54.6386 41.1512 55.7104 40.012C57.6219 41.1231 59.6042 41.8456 61.1972 41.9115L61.2975 41.2452ZM51.91 29.1121C52.9116 29.1121 53.2518 29.9083 53.2518 30.8026C53.2518 31.9783 52.2852 32.5969 51.3284 33.029C50.8451 32.1782 50.5632 31.3603 50.5632 30.6146C50.5632 29.8634 51.1131 29.1121 51.91 29.1121ZM54.5537 39.6318C53.9042 40.1432 52.9425 40.4006 52.1618 40.4006C50.4593 40.4006 48.9919 39.098 48.9919 37.1234C48.9919 36.1224 49.3826 35.4771 50.0525 34.9468C51.1846 36.6289 52.9109 38.2156 54.7873 39.4431C54.7137 39.5119 54.6337 39.5715 54.5537 39.6318Z" fill="black"/>
<path d="M54.252 50.7083C54.1089 50.1682 53.8452 49.5474 53.1921 49.5474C52.699 49.5474 52.1147 49.9683 51.738 50.2881V54.863C51.738 56.3466 52.3798 56.1404 53.5688 56.2673V56.8502C52.5236 56.8502 51.4574 56.8068 50.42 56.8068C49.6378 56.8068 48.8641 56.8068 48.0778 56.8502V56.2673L49.3264 56.0653V50.533C49.3264 49.882 49.2717 49.3426 48.4391 49.3426C48.2777 49.3426 48.1248 49.3426 47.9649 49.3587V48.7912C48.5716 48.646 49.1819 48.4861 49.7901 48.3304C50.2011 48.2069 50.7489 48.0084 51.1453 48.0084C51.7513 48.0084 51.738 48.7912 51.738 49.2283V49.4331C52.3188 48.7912 53.2321 47.967 54.1643 47.967C55.0068 47.967 55.6731 48.4321 55.6731 49.3321C55.6731 50.0693 54.9787 50.6957 54.252 50.7083Z" fill="black"/>
<path d="M36.807 56.8061C35.9842 56.8061 35.1565 56.8061 34.3393 56.8496V56.2667L35.5465 56.0647V51.7101C35.5465 50.7372 35.522 49.5033 34.2123 49.5033C33.5558 49.5033 32.5702 49.8386 32.0049 50.1676V55.164C32.0049 56.0977 32.3388 56.1818 33.1966 56.2667V56.8496C32.3556 56.8496 31.511 56.8061 30.6861 56.8061C29.897 56.8061 29.1163 56.8061 28.3314 56.8496V56.2667L29.5806 56.0647V50.6355C29.5806 49.9417 29.5687 49.3413 28.7059 49.3413C28.5453 49.3413 28.3882 49.3413 28.2303 49.3574V48.7906C28.8385 48.6454 29.4467 48.4855 30.0576 48.3298C30.6097 48.1811 31.0782 48.0078 31.4058 48.0078C32.1094 48.0078 32.0035 48.9218 32.0035 49.3862C32.9602 48.8061 34.5154 48.0078 35.6419 48.0078C36.3756 48.0078 36.9228 48.1642 37.4068 48.7331C37.9904 49.4002 37.9532 50.5036 37.9532 51.3488V55.1205C37.9532 56.3242 38.5845 56.1229 39.4971 56.2667V56.8496C38.6126 56.8503 37.7077 56.8061 36.807 56.8061Z" fill="black"/>
<path d="M11.0629 41.5207H0.0149841V40.9385L2.06042 40.5773V30.4855C2.06042 29.2818 1.70128 28.9774 0.170707 28.9353V28.3538H6.70615V28.9353L4.81994 29.2502V39.3722C4.81994 40.491 5.07948 40.6187 6.70615 40.6187C9.27697 40.6187 10.1475 40.3879 10.7605 37.7981H11.4017L11.0629 41.5207Z" fill="black"/>
<path d="M19.1429 51.1925C18.2436 51.1925 17.8831 51.4366 17.8831 52.3793V56.123C16.5293 56.687 14.89 57.1085 12.9042 57.1085C8.90939 57.1085 6.2558 54.3252 6.2558 50.4342C6.2558 46.6155 9.28537 43.5081 13.2212 43.5081C15.1376 43.5081 16.6759 43.9724 17.8073 44.3758L17.7814 47.7056H17.2125C17.0245 46.6877 16.6759 45.8285 16.0256 45.2364C15.4006 44.6837 14.5729 44.3729 13.5713 44.3729C10.179 44.3729 9.37306 48.2955 9.37306 50.5485C9.37306 52.8591 10.1987 56.2528 13.1918 56.2528C14.8205 56.2528 15.2667 55.7428 15.2667 54.0425V51.4366L13.6547 51.1925V50.5485H19.4045V51.1925H19.1429Z" fill="black"/>
<path d="M62.198 56.9639C61.2826 56.9639 60.6625 56.7864 60.3265 55.8513C59.7044 56.7864 58.4901 57.0529 57.5909 57.0529C55.9649 57.0529 54.4554 56.3571 54.4554 54.56C54.4554 51.6826 58.1864 51.6539 60.2361 51.6539V50.547C60.2361 49.4723 59.731 49.0536 58.5947 49.0536C57.8532 49.0536 57.0437 49.2857 56.3556 49.532V48.4587C57.3124 48.1817 58.258 47.9958 59.4252 47.9958C60.2522 47.9958 61.3984 48.1648 62.0206 48.7653C62.6869 49.4015 62.6638 50.2018 62.6638 51.0738V55.0243C62.6638 55.7174 62.8714 56.2673 63.5652 56.2673C64.1733 56.2673 64.813 56.2098 65.4037 56.1558V46.1923C65.4037 45.4839 65.3931 44.8848 64.5367 44.8848C64.3802 44.8848 64.2224 44.8982 64.0555 44.915V44.3489C64.6643 44.2079 65.2753 44.0445 65.8891 43.8895C66.4397 43.7422 66.909 43.5647 67.2352 43.5647C67.9359 43.5647 67.8314 44.4513 67.8314 44.9466V55.1646C67.8314 56.1095 68.3813 56.1558 69.8319 56.2673V56.8502C67.2765 56.8502 64.7534 56.9639 62.198 56.9639ZM60.2361 52.4949C58.9454 52.4949 57.076 52.7271 57.076 54.513C57.076 55.415 57.4857 55.9811 58.4312 55.9811C59.1951 55.9811 59.7892 55.4284 60.0368 54.8188C60.2108 54.3537 60.2361 53.9757 60.2361 53.4678V52.4949Z" fill="black"/>
<path d="M36.8868 41.6344C35.9525 41.6344 35.3415 41.4611 35.0076 40.5177C34.3826 41.4611 33.1684 41.7375 32.2565 41.7375C30.6411 41.7375 29.1196 41.0389 29.1196 39.2389C29.1196 36.3623 32.8577 36.3216 34.9235 36.3216V35.2175C34.9235 34.1429 34.4058 33.7388 33.2694 33.7388C32.5252 33.7388 31.7024 33.9661 31.0325 34.2032V33.1293C31.9928 32.8669 32.9201 32.6747 34.1161 32.6747C34.9242 32.6747 36.0851 32.8361 36.7129 33.4323C37.3645 34.0727 37.3315 34.8836 37.3315 35.7569V39.6907C37.3315 40.3872 37.5406 40.9547 38.249 40.9547C38.8481 40.9547 39.485 40.8958 40.0946 40.8228V30.8622C40.0946 30.1488 40.0784 29.5582 39.2163 29.5582C39.0592 29.5582 38.9021 29.5883 38.7436 29.6003V29.0173C39.3531 28.8735 39.9627 28.7136 40.5582 28.553C41.1089 28.4099 41.5697 28.2324 41.9254 28.2324C42.6058 28.2324 42.5125 29.1345 42.5125 29.6115V39.8324C42.5125 40.7807 43.054 40.8221 44.5186 40.954V41.52C41.9492 41.5208 39.4366 41.6344 36.8868 41.6344ZM34.9228 37.1675C33.6152 37.1675 31.7466 37.3948 31.7466 39.1842C31.7466 40.0807 32.1541 40.6636 33.092 40.6636C33.8762 40.6636 34.4766 40.0975 34.706 39.4893C34.8779 39.039 34.9228 38.6441 34.9228 38.1355V37.1675Z" fill="black"/>
<path d="M47.6583 52.3043L41.797 52.3927C41.8461 54.5433 42.7566 55.9546 45.0644 55.9546C45.6901 55.9546 46.435 55.8221 46.9723 55.6474V56.4043C45.9671 56.8504 45.1128 57.0398 43.9743 57.0398C41.2506 57.0398 39.1441 55.2553 39.1441 52.4642C39.1441 49.7061 41.2036 48.0093 43.8754 48.0093C46.0078 48.0093 47.6934 49.4732 47.6934 51.654C47.6934 51.856 47.6815 52.0917 47.6583 52.3043ZM43.7849 48.8538C42.4101 48.8538 41.8854 50.4475 41.8272 51.5951L44.1651 51.3622C44.7775 51.3012 45.1506 51.2191 45.1506 50.5043C45.1506 49.6921 44.6737 48.8538 43.7849 48.8538Z" fill="black"/>
<path d="M29.9327 33.5185C29.5252 33.2134 29.0728 32.97 28.5663 32.97C28.1756 32.97 27.982 33.3733 27.8529 33.6778C28.4211 34.1442 28.7704 34.9719 28.7704 35.6958C28.7704 37.7988 27.0561 39.0249 25.0668 39.0249C24.6508 39.0249 24.2426 39.0102 23.8336 38.9071C23.6155 39.1842 23.2823 39.4437 22.9505 39.5749C22.9771 39.9993 23.4569 40.0224 23.7754 40.0224C24.4705 40.0224 25.1565 39.9677 25.8363 39.9677C27.3612 39.9677 29.0728 40.4342 29.0728 42.2607C29.0728 44.8323 26.4753 45.9034 24.2713 45.9034C22.7323 45.9034 20.3046 45.2047 20.3046 43.2947C20.3046 42.4228 21.0025 41.8413 21.7271 41.506C21.1295 41.1454 20.9443 40.4608 20.9443 39.793C20.9443 39.6738 20.9576 39.5637 20.9745 39.4437C21.5693 39.3722 22.6874 39.0818 23.0683 38.6174C21.8702 38.1502 21.1884 37.2222 21.1884 35.9315C21.1884 33.7388 23.0781 32.6747 25.0661 32.6747C25.8089 32.6747 26.6899 32.8521 27.3142 33.2709C27.5485 32.3625 28.2612 31.7207 29.2215 31.7207C29.6108 31.7207 30.4371 31.8371 30.4371 32.3738C30.4385 32.8073 30.2028 33.2008 29.9327 33.5185ZM24.9237 33.5894C23.8785 33.5894 23.4289 34.4325 23.4289 35.5506C23.4289 36.8469 23.76 38.1215 25.0506 38.1215C26.1 38.1215 26.5174 37.3085 26.5174 36.177C26.5174 34.9712 26.1863 33.5894 24.9237 33.5894ZM25.5732 41.9254C24.8177 41.9254 24.453 41.9998 23.701 41.9998C23.2037 41.9998 22.7464 41.9549 22.3809 41.8399C22.134 42.03 21.8857 42.4775 21.8857 42.784C21.8857 43.9856 23.0508 44.4359 24.7364 44.4359C26.6331 44.4359 27.766 43.8264 27.766 42.911C27.7667 41.9002 26.3876 41.9254 25.5732 41.9254Z" fill="black"/>
<path d="M20.3655 37.0637L14.5007 37.1479C14.5596 39.2852 15.4589 40.7064 17.7821 40.7064C18.4099 40.7064 19.1387 40.5773 19.6739 40.4005V41.1455C18.6743 41.607 17.8094 41.7852 16.6941 41.7852C13.9641 41.7852 11.8611 40.0105 11.8611 37.2215C11.8611 34.4473 13.9073 32.7505 16.5749 32.7505C18.7283 32.7505 20.3999 34.2151 20.3999 36.3931C20.4006 36.6141 20.3838 36.8456 20.3655 37.0637ZM16.49 33.5894C15.1278 33.5894 14.587 35.2035 14.5294 36.3349L16.8716 36.1189C17.4784 36.0606 17.8606 35.9561 17.8606 35.2617C17.8599 34.4473 17.3801 33.5894 16.49 33.5894Z" fill="black"/>
<path d="M28.1425 52.3043L22.2783 52.3927C22.3407 54.5433 23.2414 55.9546 25.566 55.9546C26.1854 55.9546 26.9072 55.8221 27.4473 55.6474V56.4043C26.4421 56.8504 25.5948 57.0398 24.4703 57.0398C21.7424 57.0398 19.6394 55.2553 19.6394 52.4642C19.6394 49.7061 21.6779 48.0093 24.3567 48.0093C26.5004 48.0093 28.1754 49.4732 28.1754 51.654C28.1754 51.856 28.1579 52.0917 28.1425 52.3043ZM24.2711 48.8538C22.9061 48.8538 22.3709 50.4475 22.3218 51.5951L24.6506 51.3622C25.256 51.3012 25.6348 51.2191 25.6348 50.5043C25.6355 49.6921 25.1571 48.8538 24.2711 48.8538Z" fill="black"/>
<path d="M70.6668 33.6589C70.6668 33.6589 70.4199 33.527 69.9415 33.8034C69.5178 34.0629 69.5606 34.3379 69.5606 34.3379C69.5606 34.3379 69.5802 34.3772 69.5802 34.3821C69.7023 34.5785 70.2003 35.4525 70.4164 35.9554C70.6422 36.4675 70.6941 37.1409 69.9022 37.6894C69.4785 37.9777 68.681 38.1755 68.0412 37.8543C67.8939 37.7841 67.6723 37.6151 67.4843 37.3548C67.2114 36.976 63.9034 30.8341 63.9034 30.8341L58.4068 20.6637C58.4068 20.6637 58.2749 20.414 58.2924 20.2962C58.3205 20.0991 58.3724 20.0212 58.4404 19.9153C62.0122 14.1592 68.6634 14.7617 68.6634 14.7617C68.6634 14.7617 68.6298 14.0175 68.8234 13.0067C69.9253 7.42452 76.6635 6.20469 76.6635 6.20469C76.6635 6.20469 74.0274 4.07859 69.9667 2.62307C67.0108 1.55967 64.6055 0.994299 60.899 0.992195C56.5437 0.988687 52.7201 2.30251 52.2761 2.43859C51.0654 2.81808 49.2605 3.7454 49.2605 3.7454L47.6121 1.19562C47.6121 1.19562 47.549 1.15563 47.4269 1.22017C47.3189 1.27839 47.3161 1.35976 47.3161 1.35976L48.3963 4.17188C48.3963 4.17188 48.0063 4.36548 47.5223 4.65729C46.628 5.20302 45.19 6.0658 42.9194 8.24101C41.5502 9.55624 39.6022 11.9545 38.0906 14.7091C34.5756 21.1407 35.3991 27.6685 35.3991 27.6685C35.3991 27.6685 38.1663 24.7546 42.2909 24.7932C44.8849 24.8206 46.3916 25.6174 46.3916 25.6174C46.3916 25.6174 46.9934 24.547 48.1501 23.5166C50.2671 21.6289 53.5233 20.8349 55.925 20.8545C56.4616 20.8573 56.7422 20.8756 56.9239 20.9324C57.0747 20.9829 57.1673 21.1155 57.1673 21.1155L66.2132 37.7385C66.2132 37.7385 66.9105 39.3764 68.9328 39.288C70.9018 39.2067 71.8929 37.8578 71.8929 36.525C71.9006 35.4181 70.8905 34.0054 70.6955 33.6911L70.6668 33.6589ZM60.7188 1.54284C67.7214 1.60807 73.8205 5.97883 73.8205 5.97883C73.8205 5.97883 71.9666 6.52526 70.1084 8.3813C68.2264 10.2619 67.8876 12.2652 67.8876 12.2652C67.8876 12.2652 62.8484 6.03775 53.5373 4.30726C51.1516 3.86605 49.7284 4.02177 49.7284 4.02177C49.7284 4.02177 54.1665 1.4776 60.7188 1.54284ZM42.2509 23.7221C38.6777 23.7123 36.6554 25.5171 36.6554 25.5171C36.6554 25.5171 35.7933 20.1124 39.6499 13.5159C43.2645 7.33754 48.4062 4.65729 48.4062 4.65729C48.4062 4.65729 47.7636 5.46045 47.2102 6.41373C42.0426 15.4246 45.0651 24.1563 45.0651 24.1563C45.0651 24.1563 44.3398 23.7256 42.2509 23.7221ZM47.5329 22.6664C46.6995 23.4015 46.4351 23.896 46.4351 23.896C46.4351 23.896 43.1109 15.0051 48.1522 5.83362C48.498 5.20372 48.9154 4.69727 48.9154 4.69727C48.9154 4.69727 52.0523 11.2685 52.7138 12.562C53.3809 13.8604 56.4399 19.8248 56.4399 19.8248C56.4399 19.8248 51.3544 19.2854 47.5329 22.6664ZM52.9958 11.157C52.7194 10.6456 49.3321 4.43352 49.3321 4.43352C49.3321 4.43352 53.5787 3.93128 59.7045 7.23232C64.4519 9.78351 67.1953 13.7299 67.1953 13.7299C67.1953 13.7299 62.3209 13.4472 58.6172 17.8362C57.8688 18.7242 57.7095 19.1451 57.7095 19.1451C57.7095 19.1451 53.6299 12.32 52.9958 11.157Z" fill="black"/>
<path d="M70.6668 33.6589C70.6668 33.6589 70.4199 33.527 69.9415 33.8034C69.5178 34.0629 69.5606 34.3379 69.5606 34.3379C69.5606 34.3379 69.5802 34.3772 69.5802 34.3821C69.7023 34.5785 70.2003 35.4525 70.4164 35.9554C70.6422 36.4675 70.6941 37.1409 69.9022 37.6894C69.4785 37.9777 68.681 38.1755 68.0412 37.8543C67.8939 37.7841 67.6723 37.6151 67.4843 37.3548C67.2114 36.976 63.9034 30.8341 63.9034 30.8341L58.4068 20.6637C58.4068 20.6637 58.2749 20.414 58.2924 20.2962C58.3205 20.0991 58.3724 20.0212 58.4404 19.9153C62.0122 14.1592 68.6634 14.7617 68.6634 14.7617C68.6634 14.7617 68.6298 14.0175 68.8234 13.0067C69.9253 7.42452 76.6635 6.20469 76.6635 6.20469C76.6635 6.20469 74.0274 4.07859 69.9667 2.62307C67.0108 1.55967 64.6055 0.994299 60.899 0.992195C56.5437 0.988687 52.7201 2.30251 52.2761 2.43859C51.0654 2.81808 49.2605 3.7454 49.2605 3.7454L47.6121 1.19562C47.6121 1.19562 47.549 1.15563 47.4269 1.22017C47.3189 1.27839 47.3161 1.35976 47.3161 1.35976L48.3963 4.17188C48.3963 4.17188 48.0063 4.36548 47.5223 4.65729C46.628 5.20302 45.19 6.0658 42.9194 8.24101C41.5502 9.55624 39.6022 11.9545 38.0906 14.7091C34.5756 21.1407 35.3991 27.6685 35.3991 27.6685C35.3991 27.6685 38.1663 24.7546 42.2909 24.7932C44.8849 24.8206 46.3916 25.6174 46.3916 25.6174C46.3916 25.6174 46.9934 24.547 48.1501 23.5166C50.2671 21.6289 53.5233 20.8349 55.925 20.8545C56.4616 20.8573 56.7422 20.8756 56.9239 20.9324C57.0747 20.9829 57.1673 21.1155 57.1673 21.1155L66.2132 37.7385C66.2132 37.7385 66.9105 39.3764 68.9328 39.288C70.9018 39.2067 71.8929 37.8578 71.8929 36.525C71.9006 35.4181 70.8905 34.0054 70.6955 33.6911L70.6668 33.6589ZM60.7188 1.54284C67.7214 1.60807 73.8205 5.97883 73.8205 5.97883C73.8205 5.97883 71.9666 6.52526 70.1084 8.3813C68.2264 10.2619 67.8876 12.2652 67.8876 12.2652C67.8876 12.2652 62.8484 6.03775 53.5373 4.30726C51.1516 3.86605 49.7284 4.02177 49.7284 4.02177C49.7284 4.02177 54.1665 1.4776 60.7188 1.54284ZM42.2509 23.7221C38.6777 23.7123 36.6554 25.5171 36.6554 25.5171C36.6554 25.5171 35.7933 20.1124 39.6499 13.5159C43.2645 7.33754 48.4062 4.65729 48.4062 4.65729C48.4062 4.65729 47.7636 5.46045 47.2102 6.41373C42.0426 15.4246 45.0651 24.1563 45.0651 24.1563C45.0651 24.1563 44.3398 23.7256 42.2509 23.7221ZM47.5329 22.6664C46.6995 23.4015 46.4351 23.896 46.4351 23.896C46.4351 23.896 43.1109 15.0051 48.1522 5.83362C48.498 5.20372 48.9154 4.69727 48.9154 4.69727C48.9154 4.69727 52.0523 11.2685 52.7138 12.562C53.3809 13.8604 56.4399 19.8248 56.4399 19.8248C56.4399 19.8248 51.3544 19.2854 47.5329 22.6664ZM52.9958 11.157C52.7194 10.6456 49.3321 4.43352 49.3321 4.43352C49.3321 4.43352 53.5787 3.93128 59.7045 7.23232C64.4519 9.78351 67.1953 13.7299 67.1953 13.7299C67.1953 13.7299 62.3209 13.4472 58.6172 17.8362C57.8688 18.7242 57.7095 19.1451 57.7095 19.1451C57.7095 19.1451 53.6299 12.32 52.9958 11.157Z" stroke="black" stroke-width="0.0153535"/>
</svg>
