<svg width="151" height="33" viewBox="0 0 151 33" fill="none" xmlns="http://www.w3.org/2000/svg">
<path d="M139.529 17.9032C139.529 17.5852 139.597 17.2636 139.736 16.9347C139.872 16.6069 140.073 16.306 140.339 16.0307C140.602 15.7554 140.937 15.5288 141.339 15.3485C141.74 15.1682 142.206 15.078 142.736 15.078C143.263 15.078 143.719 15.1682 144.101 15.3485C144.482 15.5288 144.799 15.7554 145.054 16.0307C145.307 16.306 145.497 16.6069 145.624 16.9347C145.752 17.2636 145.814 17.5852 145.814 17.9032H139.529ZM147.943 22.4095C147.603 22.6641 147.063 22.9651 146.323 23.3147C145.581 23.6631 144.62 23.8386 143.434 23.8386C142.226 23.8386 141.28 23.5364 140.592 22.9334C139.905 22.3303 139.549 21.6274 139.529 20.8234H150.131V20.0619C150.131 18.8132 149.974 17.6644 149.656 16.6179C149.339 15.5702 148.868 14.6711 148.244 13.9195C147.62 13.169 146.851 12.5818 145.942 12.1591C145.032 11.7351 143.974 11.5244 142.768 11.5244C141.561 11.5244 140.481 11.7412 139.529 12.1749C138.577 12.6086 137.773 13.1849 137.116 13.9036C136.46 14.6236 135.958 15.4642 135.608 16.4279C135.26 17.3903 135.084 18.3905 135.084 19.426C135.084 20.6114 135.27 21.6956 135.64 22.68C136.01 23.6631 136.55 24.5049 137.26 25.203C137.968 25.9011 138.832 26.4468 139.847 26.8379C140.863 27.229 142.005 27.4251 143.276 27.4251C144.227 27.4251 145.073 27.3337 145.814 27.1547C146.556 26.9744 147.196 26.7685 147.736 26.5358C148.276 26.3031 148.714 26.0655 149.052 25.8219C149.392 25.5782 149.645 25.404 149.815 25.298L147.943 22.4095ZM97.3425 22.9492C97.0463 23.1612 96.7295 23.3464 96.3908 23.5047C96.052 23.6631 95.6499 23.7435 95.1844 23.7435C94.5702 23.7435 94.1205 23.5474 93.8354 23.1551C93.549 22.764 93.4064 22.2085 93.4064 21.4897V15.6177H97.2486V12.0312H93.4064V8.04257H88.8355V12.0312H86.4788V15.6177H88.8355V21.2351C88.8355 22.1671 88.9306 23.0126 89.1207 23.7752C89.312 24.5366 89.6288 25.1872 90.0736 25.7269C90.5172 26.2665 91.0997 26.6893 91.8186 26.9963C92.5388 27.3021 93.4284 27.4568 94.4861 27.4568C96.1787 27.4568 97.7458 26.8854 99.185 25.7427L97.3425 22.9492ZM136.92 6.73172C136.242 6.16035 135.491 5.75833 134.666 5.52564C133.84 5.29296 133.025 5.176 132.221 5.176C131.46 5.176 130.713 5.29783 129.983 5.54148C129.253 5.78513 128.603 6.15548 128.03 6.65253C127.458 7.14959 126.999 7.77821 126.651 8.54084C126.301 9.30225 126.125 10.2123 126.125 11.2697V12.0312H123.714V15.6177H126.125V26.9171H130.665V15.6177H134.19V12.0312H130.665V11.2064C130.665 10.4657 130.856 9.89433 131.237 9.4923C131.618 9.09149 132.126 8.88926 132.761 8.88926C133.163 8.88926 133.554 8.95261 133.935 9.07931C134.317 9.20723 134.666 9.38753 134.983 9.619L136.92 6.73172ZM116.829 26.9171H121.4V12.0312H119.114H116.829V26.9171ZM100.896 26.9171H114.824V22.9967H105.69V5.74737H100.896V26.9171ZM74.7816 17.9032C74.7816 17.5852 74.8499 17.2636 74.9876 16.9347C75.1253 16.6069 75.3263 16.306 75.5908 16.0307C75.8552 15.7554 76.1891 15.5288 76.5912 15.3485C76.9934 15.1682 77.4589 15.078 77.9877 15.078C78.5166 15.078 78.9723 15.1682 79.3525 15.3485C79.734 15.5288 80.052 15.7554 80.3055 16.0307C80.5589 16.306 80.7503 16.6069 80.877 16.9347C81.0037 17.2636 81.0671 17.5852 81.0671 17.9032H74.7816ZM83.1947 22.4095C82.856 22.6641 82.3161 22.9651 81.5752 23.3147C80.8343 23.6631 79.8717 23.8386 78.686 23.8386C77.4796 23.8386 76.5327 23.5364 75.8455 22.9334C75.157 22.3303 74.8024 21.6274 74.7816 20.8234H85.3845V20.0619C85.3845 18.8132 85.2261 17.6644 84.9093 16.6179C84.5912 15.5702 84.1196 14.6711 83.4957 13.9195C82.8718 13.169 82.1041 12.5818 81.1938 12.1591C80.2848 11.7351 79.2258 11.5244 78.0194 11.5244C76.813 11.5244 75.7346 11.7412 74.7816 12.1749C73.8299 12.6086 73.0245 13.1849 72.3689 13.9036C71.712 14.6236 71.21 15.4642 70.8615 16.4279C70.5117 17.3903 70.3375 18.3905 70.3375 19.426C70.3375 20.6114 70.5215 21.6956 70.8932 22.68C71.2624 23.6631 71.8022 24.5049 72.5114 25.203C73.2206 25.9011 74.0834 26.4468 75.0985 26.8379C76.1148 27.229 77.2578 27.4251 78.5276 27.4251C79.4805 27.4251 80.3262 27.3337 81.0671 27.1547C81.808 26.9744 82.449 26.7685 82.9888 26.5358C83.5274 26.3031 83.9673 26.0655 84.3049 25.8219C84.6436 25.5782 84.8983 25.404 85.0677 25.298L83.1947 22.4095ZM46.3997 26.9171H50.9706L51.5104 13.1739L56.1459 21.3314H58.622L63.0028 13.0789L63.606 26.9171H68.3999L67.4153 5.74737H62.8432L57.4473 15.6811L51.9235 5.74737H47.3831L46.3997 26.9171ZM119.114 10.3292C117.703 10.3292 116.538 9.16459 116.538 7.75262C116.538 6.34066 117.703 5.176 119.114 5.176C120.561 5.176 121.691 6.30533 121.691 7.75262C121.691 9.16459 120.526 10.3292 119.114 10.3292Z" fill="#231F20"/>
<path d="M18.2175 10.4082C21.8135 15.1679 23.9473 21.096 23.9473 27.526C23.9473 29.0768 23.8218 30.5984 23.5817 32.0835H33.9933C34.8987 32.0835 35.6322 31.3477 35.6322 30.4401V1.6635C35.6322 0.591431 34.622 -0.201656 33.5875 0.0712318C27.3703 1.71223 21.989 5.41575 18.2175 10.4082Z" fill="#99D538"/>
<path d="M12.853 32.0828C12.6142 30.5989 12.4874 29.0773 12.4874 27.5252C12.4874 21.0965 14.6224 15.1672 18.2172 10.4075C14.4457 5.41501 9.06444 1.7115 2.84724 0.0717201C1.81266 -0.201172 0.80246 0.590698 0.80246 1.66277V30.4405C0.80246 31.3469 1.53726 32.0828 2.44267 32.0828H12.853Z" fill="#239DE0"/>
<path d="M18.2175 10.4082C14.6215 15.1679 12.4877 21.096 12.4877 27.526C12.4877 29.0768 12.6132 30.5984 12.8533 32.0835H23.5817C23.8218 30.5984 23.9473 29.0768 23.9473 27.526C23.9473 21.096 21.8135 15.1679 18.2175 10.4082Z" fill="#1563A9"/>
</svg>
