<svg width="85" height="58" viewBox="0 0 85 58" fill="none" xmlns="http://www.w3.org/2000/svg">
<path fill-rule="evenodd" clip-rule="evenodd" d="M43.3517 0.992117C34.9666 0.992117 28.1689 7.78658 28.1689 16.1663C28.1689 19.6241 29.3287 22.8125 31.2793 25.3678L43.9008 8.78801L42.5438 8.79251H41.194C39.7521 8.79251 38.4018 8.8913 37.429 9.07991C36.8372 9.19667 36.3097 9.41223 35.881 9.7131C35.3768 10.0634 34.7464 10.8133 34.3357 11.5498C34.2881 11.6351 34.2193 11.7654 34.1304 11.9405L33.3916 11.7788L34.6287 7.01418H50.437L37.8774 23.8005C38.6943 23.7286 39.0196 23.7107 39.6806 23.7107C40.1911 23.7107 40.9644 23.7421 42.0001 23.805L44.2315 23.9397C45.0404 23.9846 45.7189 24.0116 46.2311 24.0116C47.3859 24.0116 48.1363 23.9217 48.8777 23.6972C49.4529 23.5176 50.0011 23.2526 50.4999 22.9113C51.3806 22.3006 52.2388 21.3216 52.7511 20.3426C52.805 20.2438 52.8859 20.0957 52.9802 19.8936L53.6497 20.0642C53.4341 20.895 53.3172 21.2138 52.9847 21.9593C52.3107 23.4637 51.5468 24.4741 50.4999 25.251C49.4214 26.0459 48.2307 26.4365 46.8198 26.459H46.6086C45.5616 26.459 44.7573 26.3737 42.258 25.992C39.7157 25.6013 38.4225 25.471 37.1445 25.471C36.289 25.471 35.4932 25.5339 34.6714 25.6641C33.5808 25.8393 33.1535 25.9695 32.1631 26.4186C34.9383 29.4408 38.9235 31.3386 43.3517 31.3386C51.7355 31.3386 58.5341 24.546 58.5341 16.1663C58.5341 7.78658 51.7355 0.992117 43.3517 0.992117Z" fill="#2058AF"/>
<path fill-rule="evenodd" clip-rule="evenodd" d="M14.7123 41.8576H3.0884L1.66082 45.0084C2.13703 44.7569 2.32644 44.6671 2.74348 44.5018C3.40295 44.2395 4.1291 44.0312 4.83297 43.909C5.44193 43.8048 6.0038 43.7545 6.91617 43.7294C7.32382 43.7186 7.70631 43.7114 8.06328 43.7114H9.78412L0.741699 56.6271H13.5242L14.9988 53.2571C14.4858 53.5517 14.3021 53.6487 13.9103 53.8248C13.1679 54.1589 12.3559 54.4104 11.5222 54.5577C10.8633 54.6726 10.1213 54.7373 9.19888 54.7589C8.89044 54.7696 8.49645 54.7732 8.01654 54.7732H5.7518L14.7123 41.8576ZM53.1301 56.6271C52.9001 56.4259 52.821 56.3325 52.6736 56.1061C52.5801 55.9588 52.501 55.8079 52.4435 55.657C52.3177 55.3193 52.2386 54.8235 52.2386 54.3565V45.461L52.2458 44.5952C52.253 43.6036 52.2782 43.3342 52.404 42.9318C52.4543 42.7737 52.5226 42.6192 52.6125 42.4719C52.7671 42.2204 52.8713 42.1055 53.1697 41.8576H48.4245C48.7337 42.1235 48.8343 42.2276 48.9745 42.4432C49.0752 42.5941 49.1507 42.7558 49.201 42.921C49.3124 43.2803 49.3484 43.636 49.3556 44.5126C49.3592 44.9617 49.3592 45.2599 49.3592 45.4V54.2451C49.3592 54.7625 49.2693 55.3157 49.1255 55.6714C49.0644 55.8223 48.9853 55.9696 48.8918 56.1061C48.7804 56.2678 48.7013 56.3576 48.4425 56.6271H53.1301ZM67.9732 41.9905C67.6065 41.872 67.4627 41.836 67.0709 41.7534C66.2225 41.5702 65.4029 41.4875 64.4718 41.4875C62.8829 41.4875 61.5133 41.7426 60.2587 42.2707C59.5145 42.5869 58.8315 42.9929 58.2276 43.4779C56.405 44.9437 55.4164 47.067 55.4164 49.5136C55.4164 51.8883 56.3727 53.9397 58.1162 55.3157C59.5577 56.451 61.409 57.0258 63.6378 57.0258C65.029 57.0258 66.3267 56.8175 67.7826 56.3612C67.8366 56.3468 67.9192 56.3217 68.0235 56.2857V53.602C67.6712 53.8391 67.549 53.9146 67.3333 54.0403C67.0493 54.2056 66.7473 54.3565 66.4274 54.493C65.5359 54.8666 64.7234 55.0427 63.8463 55.0427C62.3185 55.0427 61.01 54.493 60.0394 53.4511C59.0832 52.4164 58.5655 50.9794 58.5655 49.3591C58.5655 47.8106 59.0472 46.3772 59.9028 45.3712C60.2695 44.9401 60.726 44.5665 61.2401 44.279C62.0777 43.812 63.0483 43.5713 64.0979 43.5713C65.0038 43.5713 65.8774 43.7473 66.7545 44.103C67.3009 44.3258 67.4986 44.4335 67.9732 44.7712V41.9905ZM80.9289 49.9231V53.5266C80.9289 54.3277 80.9181 54.6187 80.8642 55.0283C80.8354 55.2547 80.7815 55.4702 80.706 55.6678C80.6018 55.9444 80.4256 56.1959 80.174 56.4402C80.1309 56.4833 80.0626 56.5444 79.9691 56.6271H84.6927C84.495 56.4331 84.4231 56.3504 84.2937 56.1708C84.1786 56.0055 84.0852 55.8439 84.0205 55.6858C83.8767 55.3409 83.8407 55.0786 83.8263 54.3493C83.8191 53.9146 83.8155 53.6595 83.8155 53.5841L83.8263 45.461V44.5844C83.8263 43.9342 83.8803 43.4312 83.9917 43.0216C84.042 42.8312 84.1211 42.648 84.2254 42.4755C84.3799 42.224 84.4914 42.1055 84.8113 41.8576H79.9871C80.2639 42.0875 80.3609 42.1953 80.5263 42.4612C80.6305 42.63 80.7168 42.8025 80.7707 42.9749C80.8858 43.3198 80.9289 43.7509 80.9289 44.5234V48.116H74.3036V45.4179C74.3036 44.6024 74.318 44.0671 74.3468 43.6719C74.3612 43.4276 74.4007 43.212 74.4618 43.0252C74.5661 42.7055 74.8357 42.2672 75.0765 42.0157C75.1125 41.9797 75.1664 41.9259 75.2419 41.8576H70.5075C70.7879 42.1486 70.8634 42.2384 70.9928 42.4252C71.0971 42.5761 71.1797 42.745 71.2445 42.9282C71.3739 43.3018 71.3954 43.503 71.4062 44.491L71.4206 45.4251V53.5086C71.4206 54.3313 71.4062 54.6906 71.3595 55.0642C71.3379 55.2582 71.2876 55.4523 71.2157 55.6498C71.0935 55.9696 70.9173 56.2247 70.6477 56.4798C70.6118 56.5121 70.5578 56.5624 70.4824 56.6271H75.1592C74.9579 56.4151 74.886 56.3289 74.7674 56.142C74.6775 55.9983 74.5984 55.8439 74.5337 55.6786C74.3791 55.2906 74.3324 55.0104 74.318 54.3852C74.3072 54.0727 74.3036 53.7781 74.3036 53.5014V49.9231H80.9289ZM16.7254 41.8576C17.0183 42.0947 17.1186 42.2061 17.2639 42.454C17.3584 42.6156 17.4296 42.7881 17.4749 42.9677C17.5302 43.1905 17.5615 43.4168 17.5683 43.6467C17.5727 43.8084 17.577 44.1138 17.5799 44.5665L17.586 45.4179V49.6429C17.586 51.1339 17.5975 51.6476 17.6442 52.244C17.7276 53.3038 18.0637 54.184 18.6802 54.9601C19.3039 55.7433 20.1509 56.3289 21.1736 56.6917C21.9673 56.9684 22.8599 57.1085 23.8686 57.1085C24.9791 57.1085 26.0644 56.9396 26.8624 56.645C27.6993 56.3325 28.5042 55.7936 29.0628 55.1684C29.7447 54.4068 30.1305 53.4835 30.2566 52.3087C30.3325 51.6081 30.3566 50.9758 30.3566 49.6645V45.4179L30.3505 44.5844L30.3501 44.4659C30.3501 43.7186 30.4109 43.2515 30.4838 43.0001C30.6373 42.4791 30.9044 42.1737 31.1467 41.9869C31.2402 41.9151 31.2686 41.8935 31.3157 41.8576H26.9383C27.1184 42.127 27.1759 42.242 27.2603 42.5007C27.3168 42.6731 27.3574 42.8599 27.3829 43.0575C27.4512 43.5821 27.4768 44.2467 27.4768 45.5077V50.092C27.4768 51.3674 27.4455 52.0069 27.3542 52.5961C27.2923 52.9913 27.1633 53.3577 26.9735 53.6739C26.6007 54.2918 25.9486 54.7445 25.1531 54.9421C24.8353 55.0211 24.4834 55.0607 24.1045 55.0607C23.3424 55.0607 22.6838 54.9026 22.0982 54.5792C21.7254 54.3744 21.4249 54.1122 21.22 53.814C20.8152 53.2212 20.6962 52.6248 20.6818 51.1087L20.6642 49.2513V45.5077C20.6642 44.2503 20.6901 43.5641 20.758 43.0575C20.8094 42.6695 20.9273 42.321 21.1208 41.9905C21.1384 41.9618 21.1657 41.9151 21.2027 41.8576H16.7254ZM37.5498 53.5912C37.5498 53.8607 37.5498 54.1086 37.5534 54.3349C37.5678 55.0175 37.6181 55.3732 37.7475 55.6966C37.8122 55.8546 37.8949 56.0055 37.9992 56.1456C38.1322 56.3253 38.1933 56.4007 38.409 56.6271H33.7098C33.9837 56.3756 34.0689 56.2858 34.2016 56.1097C34.3094 55.9696 34.3961 55.8115 34.459 55.6427C34.5805 55.3193 34.6287 54.9169 34.6287 54.2164V44.5234C34.6287 43.7402 34.5862 43.2839 34.4827 42.9498C34.4245 42.7665 34.3378 42.5833 34.225 42.4145C34.0851 42.1989 33.9906 42.0947 33.7278 41.8576H37.5426C38.0135 41.8576 38.4701 41.8648 38.9123 41.8756C40.0878 41.9043 40.778 41.9761 41.4394 42.1306C42.3849 42.3534 43.2332 42.824 43.8408 43.4599C44.5022 44.1533 44.8437 44.976 44.8437 45.885C44.8437 46.2658 44.7826 46.6502 44.6604 47.0203C44.4447 47.6885 44.078 48.2166 43.4957 48.7052C42.9816 49.1399 42.4172 49.4633 41.6767 49.7579C41.4142 49.8621 41.3028 49.9016 41.0188 49.9878L43.3123 52.6823C43.5927 53.0128 43.9522 53.4116 44.3908 53.8894C45.0846 54.6367 45.5447 55.1109 46.0659 55.6031C46.2888 55.8151 46.5009 56.0091 46.7022 56.1816C46.8928 56.3468 46.9934 56.4295 47.2415 56.6271H45.3865C45.1133 56.6271 44.8545 56.6235 44.6208 56.6127C43.9774 56.5947 43.5747 56.4977 43.1505 56.2678C42.6545 56.0019 42.1512 55.6031 41.6227 55.0571C41.4574 54.8918 41.2201 54.6259 40.9038 54.2631C40.6234 53.9433 40.4185 53.7062 40.2891 53.5481L37.5498 50.268V53.5912ZM37.7871 49.0286C38.0028 49.0286 38.258 49.007 38.5636 48.9639C39.358 48.8489 39.8936 48.6729 40.4221 48.3603C40.6989 48.1987 40.9289 48.0118 41.1123 47.8071C41.4933 47.3795 41.6875 46.8119 41.6875 46.1401C41.6875 45.3712 41.4286 44.7533 40.9254 44.3258C40.6378 44.0815 40.2963 43.8982 39.926 43.794C39.3688 43.6324 38.6642 43.5461 37.9345 43.5461C37.8122 43.5461 37.7331 43.5461 37.5498 43.5533V49.0214C37.6648 49.0286 37.7152 49.0286 37.7871 49.0286Z" fill="#15356F"/>
</svg>
