<svg width="82" height="64" viewBox="0 0 82 64" fill="none" xmlns="http://www.w3.org/2000/svg">
<path d="M55.9116 37.9408H73.0365C63.2906 48.884 47.2377 57.9477 40.0118 63.9345C39.984 63.9484 39.97 63.9762 39.97 63.9762C40.0536 63.9484 39.9283 64.018 39.97 63.9762C39.9561 63.9762 39.9422 63.9902 39.9144 63.9902C31.7696 57.7528 17.276 48.6195 8.36548 37.9268H26.5903C26.7992 37.9268 26.9941 37.8155 27.0776 37.6205L30.5861 30.339L34.22 51.4876C34.2617 51.7521 34.4845 51.9331 34.749 51.9331H34.763C35.0275 51.9331 35.2502 51.7243 35.292 51.4597L39.0651 21.8879L42.685 44.0111C42.7267 44.2478 42.9217 44.4427 43.1723 44.4566C43.4229 44.4705 43.6456 44.3313 43.7292 44.0946L47.0706 34.3626L50.2032 46.0159C50.2589 46.2248 50.4399 46.3919 50.6488 46.4197C50.8715 46.4475 51.0804 46.3501 51.1918 46.1552L55.9116 37.9408Z" fill="#FFDE3D"/>
<path d="M73.6352 37.2585C73.5795 37.0358 73.3707 36.8687 73.1201 36.8687H55.6053C55.4104 36.8687 55.2294 36.9801 55.1319 37.1472L50.8994 44.4983L47.6554 32.3856C47.5997 32.1628 47.3909 31.9957 47.1542 31.9818C46.9175 31.9679 46.7087 32.1211 46.6251 32.3438L43.409 41.7277L39.5245 18.087C39.4828 17.8224 39.2461 17.6275 38.9816 17.6414C38.717 17.6414 38.4943 17.8503 38.4525 18.1148L34.6794 47.7702L31.3658 28.5151C31.3241 28.2784 31.1431 28.1113 30.9064 28.0695C30.6697 28.0417 30.4469 28.167 30.3495 28.3758L26.2562 36.8687H7.78074C7.68328 36.8687 7.59975 36.8826 7.53013 36.9383C1.05607 28.7518 -1.993 19.702 3.61785 10.4016C12.8625 -4.94122 32.8695 -1.14032 41.0839 11.7382C49.7717 -0.820096 69.9457 -3.88309 78.6056 11.7939C83.6735 20.8993 80.2763 29.5314 73.6352 37.2585Z" fill="#FFDE3D"/>
</svg>
