<svg width="81" height="65" viewBox="0 0 81 65" fill="none" xmlns="http://www.w3.org/2000/svg">
<path d="M78.5562 12.3723C69.8958 -3.28904 49.7299 -0.234877 41.0555 12.3165C32.8414 -0.541688 12.8568 -4.36288 3.62454 10.9777C-9.62413 32.9426 25.2966 53.4153 39.8701 64.572C39.898 64.5581 39.912 64.5581 39.9259 64.5581C39.9259 64.5442 39.9398 64.5302 39.9677 64.5163C52.4075 54.1962 90.9821 34.8113 78.5562 12.3723ZM43.3148 18.0622C44.9464 18.0622 46.2574 19.3592 46.2574 20.9909C46.2574 22.6365 44.9743 23.9335 43.3427 23.9195C41.7249 23.9195 40.4977 22.6226 40.4977 20.9212C40.4977 19.3034 41.711 18.0622 43.3148 18.0622ZM31.391 30.8367C32.5206 30.8367 33.4829 31.7432 33.5247 32.845C33.5665 33.877 32.3951 35.0066 31.3212 34.9787C30.2474 34.9508 29.4385 34.0722 29.4246 32.9147C29.4106 31.6596 30.1777 30.8367 31.391 30.8367ZM51.0408 34.4627C50.6364 34.2674 50.0786 34.1698 49.8415 33.8491C48.9768 32.6637 48.2098 31.3946 47.4009 30.1534C47.2894 30.2092 47.1778 30.265 47.0523 30.3347C47.5125 31.9664 47.9727 33.5841 48.4329 35.2158C48.5445 35.6202 48.6282 36.0246 48.7677 36.4291C49.0745 37.3913 48.6561 37.726 47.7356 37.7679C46.0761 37.8516 45.9227 38.0468 45.9227 39.7343C45.9227 42.119 45.9227 44.5038 45.9227 46.8886C45.9227 47.5998 45.8669 48.4087 44.9325 48.2274C44.556 48.1576 44.0818 47.3627 44.0679 46.8886C43.9702 44.3364 44.0121 41.7843 43.9981 39.2322C43.9981 38.6883 44.2631 37.8795 43.3427 37.9631C43.1056 37.9771 42.7848 38.8278 42.7709 39.3159C42.6872 41.868 42.6733 44.4201 42.6454 46.9722C42.6314 47.6416 42.5199 48.3947 41.697 48.2413C41.3066 48.1716 40.7906 47.4045 40.7766 46.9443C40.679 44.5177 40.7348 42.0911 40.7208 39.6645C40.7208 38.0468 40.5535 37.8237 38.9636 37.7818C37.7503 37.7539 37.8201 37.0009 38.0014 36.2338C38.4058 34.6161 38.9078 33.0263 39.3681 31.4085C39.4796 30.9901 39.5633 30.5718 39.6749 30.1534C39.5773 30.1116 39.4796 30.0558 39.382 30.0139C39.131 30.3207 38.88 30.6136 38.6429 30.9344C37.2762 32.7194 35.8537 34.4627 34.5706 36.3036C34.0825 37.0009 33.6363 37.9073 33.5944 38.7302C33.4689 41.4915 33.5665 44.2528 33.5247 47.0141C33.5108 47.4464 33.2737 48.1297 32.9808 48.2413C32.2417 48.5202 31.9628 47.9484 31.9628 47.2651C31.9628 45.8008 31.9906 44.3364 31.9349 42.8721C31.9209 42.5095 31.5862 42.1609 31.391 41.8122C31.1957 42.1748 30.861 42.5235 30.8471 42.8861C30.7773 44.3085 30.8192 45.731 30.8192 47.1535C30.8192 47.6974 30.875 48.3947 30.0661 48.2553C29.8011 48.2134 29.4525 47.558 29.4385 47.1675C29.3549 44.4898 29.3549 41.8122 29.2851 39.1346C29.2712 38.6046 29.0899 38.0747 28.9923 37.5448C28.8389 37.5587 28.6854 37.5866 28.532 37.6005C28.532 38.5349 28.5878 39.4693 28.5042 40.3897C28.4763 40.7663 28.1834 41.1289 28.0021 41.4915C27.8069 41.1149 27.4582 40.7384 27.4303 40.3479C27.3466 39.3856 27.4164 38.4233 27.4024 37.4611C27.3885 36.3593 27.9463 35.8573 29.0341 35.8712C29.8709 35.8852 30.7076 35.8294 31.5444 35.8712C33.2597 35.9549 34.3336 35.1182 35.1564 33.6817C36.6068 31.1436 38.085 28.6193 39.6749 26.1648C40.7487 24.5053 40.8045 24.5889 42.6872 25.356C43.1056 25.5233 43.8168 25.4675 44.1794 25.2165C45.1835 24.5192 45.9506 24.7563 46.5502 25.6349C47.7078 27.3224 48.7955 29.0517 49.8973 30.781C50.3714 31.5201 50.9153 32.2313 51.2361 33.0402C51.4313 33.4167 51.1245 33.9885 51.0408 34.4627Z" fill="#F6572B"/>
<path d="M39.9259 64.5581C39.898 64.6 40.0235 64.5302 39.9259 64.5581V64.5581Z" fill="#F6572B"/>
</svg>
