<svg width="75" height="41" viewBox="0 0 75 41" fill="none" xmlns="http://www.w3.org/2000/svg">
<path d="M0.117065 20.0503V40.0918H37.231H74.3449V20.0503V0.00875092H37.231H0.117065V20.0503ZM71.5597 20.0503V37.2666H37.2089H2.85806V20.0503V2.83399H37.2089H71.5597V20.0503Z" fill="#00A4E4"/>
<path d="M54.0086 8.42279C53.0581 8.50666 51.9749 8.72297 51.1438 8.99225C49.3887 9.5573 48.0447 10.3784 46.7361 11.6851C45.2241 13.1948 44.2471 14.9208 43.7033 17.0309C43.4027 18.2184 43.3364 18.7879 43.3364 20.227C43.332 21.5337 43.3673 21.8912 43.5751 22.9065C43.942 24.6723 44.8041 26.4513 45.9536 27.8198C46.4045 28.354 47.3771 29.2986 47.8767 29.6871C49.508 30.9541 51.4267 31.7045 53.6195 31.9252C54.4109 32.0091 56.1395 31.9605 56.838 31.8414C58.5179 31.55 60.0034 30.932 61.2413 30.0005C62.9964 28.6806 64.3359 26.7515 64.9725 24.6238C65.3262 23.4363 65.4588 22.5048 65.4898 20.898L65.5163 19.7414H60.8213H56.1306V21.3527V22.9639H58.96C61.1926 22.9639 61.7895 22.9772 61.7895 23.0169C61.7895 23.1537 61.5198 24.1205 61.396 24.4339C60.9008 25.6744 60.0432 26.7868 59.0264 27.5064C58.5975 27.8066 57.7443 28.2392 57.2801 28.3893C55.4586 28.9764 53.3101 28.8042 51.5107 27.9258C49.2428 26.8221 47.6468 24.69 47.1384 22.0899C46.8157 20.4389 46.9439 18.5672 47.4832 17.0265C48.5266 14.0424 50.9448 12.0868 54.066 11.7027C54.7203 11.6233 56.1616 11.6718 56.7672 11.7954C58.7744 12.1971 60.5118 13.3096 61.8116 15.0312L62.068 15.3755L62.3819 15.0709C62.5543 14.9076 63.1025 14.3823 63.602 13.9099C64.1016 13.4376 64.5128 13.0403 64.5216 13.027C64.5481 12.9652 63.8098 12.1 63.3324 11.6365C62.1564 10.4932 60.5825 9.53964 59.0042 9.01432C57.7222 8.58612 56.7938 8.43603 55.2906 8.41838C54.6938 8.41396 54.1191 8.41396 54.0086 8.42279Z" fill="#00A4E4"/>
<path d="M19.8213 9.15548C19.7638 9.28349 17.3544 14.391 14.4675 20.5006C11.585 26.6146 9.22424 31.6249 9.22424 31.6382C9.22424 31.6514 10.0731 31.6558 11.112 31.6514L12.9953 31.6382L14.2376 28.8924L15.4799 26.1466L20.2987 26.1422H25.122L26.3201 28.888L27.5182 31.6382L29.4015 31.6514C30.436 31.6558 31.2848 31.647 31.2848 31.6338C31.2848 31.5984 31.4263 31.9119 24.1008 15.6138C23.0884 13.3536 22.0052 10.9522 21.7046 10.2723C21.3996 9.5925 21.1299 9.0098 21.1078 8.9789C21.0724 8.94358 20.8956 8.92593 20.4977 8.92593H19.9274L19.8213 9.15548ZM22.0229 18.9688C22.9115 20.9773 23.6321 22.6327 23.6233 22.6416C23.6145 22.6504 22.1202 22.6504 20.3076 22.646L17.0095 22.6327L18.6939 18.9555C19.6179 16.9337 20.3827 15.2871 20.3916 15.296C20.4004 15.3048 21.1343 16.9558 22.0229 18.9688Z" fill="#00A4E4"/>
<path d="M35.1752 20.4256V31.6162H36.8994H38.6236V20.4256V9.23504H36.8994H35.1752V20.4256Z" fill="#00A4E4"/>
</svg>
