<svg width="76" height="58" viewBox="0 0 76 58" fill="none" xmlns="http://www.w3.org/2000/svg">
<path d="M4.55364 37.8804C7.25994 37.8804 8.78726 39.2525 8.78726 41.4801V44.5363C8.78726 46.7549 7.25994 48.1182 4.55364 48.1182C1.90093 48.1271 0.337891 46.7549 0.337891 44.5452V41.489C0.337891 39.2525 1.90093 37.8804 4.55364 37.8804ZM4.55364 39.404C2.97274 39.404 2.01705 40.1703 2.01705 41.4712V44.5452C2.01705 45.8372 2.97274 46.6123 4.55364 46.6123C6.15241 46.6123 7.1081 45.8461 7.1081 44.5452V41.4712C7.1081 40.1703 6.15241 39.404 4.55364 39.404Z" fill="#434343"/>
<path d="M14.6377 37.8804C17.2725 37.8804 18.4604 39.2704 18.4604 41.5959V47.3964C18.4604 47.735 18.3443 47.8509 18.0049 47.8509H17.2189C16.8795 47.8509 16.7634 47.735 16.7634 47.3964V41.6494C16.7634 40.1703 16.031 39.4129 14.4144 39.4129C13.4944 39.4129 12.762 39.5822 12.2351 39.7515C12.0475 39.8228 12.0118 39.9386 12.0118 40.0901V47.3875C12.0118 47.7261 11.8957 47.8419 11.5563 47.8419H10.7703C10.4487 47.8419 10.3416 47.7261 10.3416 47.3875V39.5733C10.3416 38.9941 10.4755 38.7625 11.0561 38.5219C11.7796 38.219 12.8871 37.8804 14.6377 37.8804Z" fill="#434343"/>
<path d="M24.1588 37.8804C27.0527 37.8804 28.4103 39.5466 28.4103 41.7652V42.8522C28.4103 43.2443 28.2406 43.5116 27.7137 43.5116H21.5776V44.4115C21.5776 45.8372 22.444 46.6658 24.0963 46.6658C25.4361 46.6658 26.2399 46.1579 26.7133 45.3738C26.9366 45.0531 27.1063 45.0174 27.4457 45.2045L27.9548 45.4629C28.2942 45.6322 28.3299 45.8728 28.1245 46.1936C27.4636 47.3341 26.2399 48.1271 24.0785 48.1271C21.1399 48.1271 19.8984 46.5143 19.8984 44.2244V41.8989C19.9074 39.3595 21.3722 37.8804 24.1588 37.8804ZM24.1588 39.306C22.4618 39.306 21.5776 40.2059 21.5776 41.6672V42.2107H26.7312V41.6672C26.7312 40.2059 25.8648 39.306 24.1588 39.306Z" fill="#434343"/>
<path d="M35.2339 34.4052V35.0646C35.2339 35.4032 35.1178 35.519 34.7784 35.519C32.9564 35.519 32.349 36.0803 32.349 37.8267V38.1653H34.8141C35.1357 38.1653 35.2429 38.2811 35.2429 38.6197V39.2791C35.2429 39.6177 35.1268 39.7335 34.8141 39.7335H32.349V47.4052C32.349 47.7438 32.2329 47.8596 31.8756 47.8596H31.1254C30.7681 47.8596 30.652 47.7438 30.652 47.4052V39.7335H29.2229C28.9014 39.7335 28.7942 39.6177 28.7942 39.2791V38.6197C28.7942 38.2811 28.9103 38.1653 29.2229 38.1653H30.652V37.8267C30.652 35.1804 31.8399 33.9954 34.5998 33.9597H34.7695C35.1268 33.9597 35.2339 34.0666 35.2339 34.4052Z" fill="#434343"/>
<path d="M39.6373 37.8804C42.683 37.8804 43.5315 39.5466 43.5315 41.6672V46.5678C43.5315 47.2271 43.3797 47.4143 42.8527 47.637C42.156 47.94 41.0842 48.1271 39.6194 48.1271C36.3058 48.1271 35.502 47.0578 35.502 45.1422C35.502 42.9503 36.7077 42.1929 39.6998 42.1929C40.6198 42.1929 41.5219 42.282 41.8434 42.3265V41.6137C41.8434 40.2772 41.3701 39.3773 39.6016 39.3773C38.4762 39.3773 37.717 39.7693 37.2704 40.5178C37.065 40.8207 36.9846 40.8742 36.6541 40.7405L36.0736 40.4821C35.752 40.3485 35.6627 40.1792 35.8324 39.8406C36.4576 38.611 37.717 37.8804 39.6373 37.8804ZM39.5033 43.5651C37.7349 43.5651 37.19 44.0729 37.19 45.1422C37.19 46.1223 37.583 46.7193 39.4676 46.7193C40.4858 46.7193 41.12 46.648 41.5576 46.4965C41.7809 46.4074 41.8434 46.345 41.8434 46.0866V43.7254C41.4594 43.6809 40.4322 43.5651 39.5033 43.5651Z" fill="#434343"/>
<path d="M54.8748 37.8804C57.34 37.8804 58.4296 39.1902 58.4296 41.5246V47.3964C58.4296 47.735 58.3135 47.8509 58.0009 47.8509H57.2149C56.8755 47.8509 56.7594 47.735 56.7594 47.3964V41.5781C56.7594 40.1346 56.0806 39.4218 54.6515 39.4218C53.6155 39.4218 52.8295 39.7604 52.4275 39.9297C52.633 40.3574 52.7134 40.9009 52.7134 41.5246V47.3964C52.7134 47.735 52.5972 47.8509 52.2846 47.8509H51.4987C51.1592 47.8509 51.0431 47.735 51.0431 47.3964V41.5781C51.0431 40.1346 50.3286 39.4218 48.8995 39.4218C48.185 39.4218 47.658 39.5377 47.1311 39.7248C46.9256 39.8406 46.9078 39.9475 46.9078 40.1168V47.3964C46.9078 47.735 46.7917 47.8509 46.4523 47.8509H45.6663C45.3447 47.8509 45.2375 47.735 45.2375 47.3964V39.5733C45.2375 38.9941 45.3715 38.7447 45.9521 38.5041C46.6488 38.2011 47.6223 37.8804 49.1318 37.8804C50.1857 37.8804 50.9717 38.1209 51.5433 38.5932C52.0346 38.3883 53.1689 37.8804 54.8748 37.8804Z" fill="#434343"/>
<path d="M62.0468 35.5191V35.6705C62.0468 36.3477 61.8413 36.5705 61.1447 36.5705H61.0286C60.3498 36.5705 60.1265 36.3655 60.1265 35.6705V35.5191C60.1265 34.8419 60.3498 34.6191 61.0286 34.6191H61.1447C61.8413 34.6102 62.0468 34.8419 62.0468 35.5191ZM61.9307 38.6109V47.3963C61.9307 47.7349 61.8145 47.8507 61.4751 47.8507H60.6892C60.3498 47.8507 60.2336 47.7349 60.2336 47.3963V38.6109C60.2336 38.2723 60.3498 38.1565 60.6892 38.1565H61.4751C61.8145 38.1654 61.9307 38.2723 61.9307 38.6109Z" fill="#434343"/>
<path d="M65.0925 47.8419H64.3244C63.985 47.8419 63.8689 47.7261 63.8689 47.3875V34.4053C63.8689 34.0668 63.985 33.9509 64.3244 33.9509H65.0925C65.4319 33.9509 65.5481 34.0668 65.5481 34.4053V47.3964C65.5391 47.735 65.4319 47.8419 65.0925 47.8419Z" fill="#434343"/>
<path d="M75.5337 38.6108V48.314C75.5337 50.7554 74.3905 52.3681 71.4698 52.3681C69.4602 52.3681 68.308 51.6196 67.6471 50.4524C67.4416 50.1316 67.4952 49.9089 67.8346 49.7396L68.3795 49.4366C68.7367 49.2495 68.8886 49.303 69.1119 49.6059C69.5674 50.3722 70.2015 50.8623 71.443 50.8623C73.0775 50.8623 73.8546 49.9623 73.8546 48.3852V47.3695C73.2383 47.5388 72.4076 47.7615 71.2197 47.7615C68.5849 47.7615 67.397 46.3894 67.397 44.046V38.6019C67.397 38.2633 67.5131 38.1475 67.8525 38.1475H68.6385C68.96 38.1475 69.0672 38.2633 69.0672 38.6019V43.9925C69.0672 45.4716 69.8175 46.229 71.4341 46.229C72.488 46.229 73.3008 46.0062 73.8456 45.8369V38.6108C73.8456 38.2722 73.9618 38.1564 74.3012 38.1564H75.0693C75.4176 38.1653 75.5337 38.2722 75.5337 38.6108Z" fill="#434343"/>
<path d="M37.9312 0.992188C30.5626 0.992188 24.5962 6.94418 24.5962 14.2951C24.5962 21.646 30.5626 27.598 37.9312 27.598C45.2998 27.598 51.2662 21.646 51.2662 14.2951C51.2751 6.94418 45.2998 0.992188 37.9312 0.992188ZM37.9312 22.6439C33.3046 22.6439 29.5622 18.9016 29.5622 14.2951C29.5622 9.67961 33.3135 5.94624 37.9312 5.94624C42.5489 5.94624 46.3002 9.68852 46.3002 14.2951C46.3091 18.9105 42.5578 22.6439 37.9312 22.6439Z" fill="url(#paint0_linear)"/>
<path d="M13.2798 52.6799C14.0301 52.6799 14.3695 53.0809 14.3695 53.7937V55.5936C14.3695 55.7005 14.3338 55.7272 14.2355 55.7272H13.9944C13.8872 55.7272 13.8604 55.6916 13.8604 55.5936V53.8115C13.8604 53.366 13.655 53.1522 13.2173 53.1522C12.9047 53.1522 12.6635 53.2591 12.5385 53.3036C12.601 53.4373 12.6278 53.5977 12.6278 53.7937V55.5936C12.6278 55.7005 12.5921 55.7272 12.4938 55.7272H12.2527C12.1455 55.7272 12.1187 55.6916 12.1187 55.5936V53.8115C12.1187 53.366 11.9044 53.1522 11.4667 53.1522C11.2523 53.1522 11.0826 53.1878 10.9219 53.2413C10.8593 53.2769 10.8504 53.3126 10.8504 53.366V55.5936C10.8504 55.7005 10.8147 55.7272 10.7164 55.7272H10.4753C10.377 55.7272 10.3413 55.6916 10.3413 55.5936V53.1967C10.3413 53.0185 10.386 52.9472 10.5557 52.867C10.77 52.7779 11.0648 52.6799 11.5292 52.6799C11.8508 52.6799 12.0919 52.7512 12.2616 52.8938C12.4135 52.8314 12.7529 52.6799 13.2798 52.6799Z" fill="#434343"/>
<path d="M16.2542 52.6799C17.0848 52.6799 17.5493 53.0987 17.5493 53.7848V54.7204C17.5493 55.3975 17.0848 55.8163 16.2542 55.8163C15.4414 55.8163 14.968 55.3975 14.968 54.7204V53.7848C14.968 53.0987 15.4414 52.6799 16.2542 52.6799ZM16.2542 53.1433C15.7719 53.1433 15.4771 53.3749 15.4771 53.7759V54.7204C15.4771 55.1124 15.7719 55.353 16.2542 55.353C16.7454 55.353 17.0402 55.1213 17.0402 54.7204V53.7759C17.0402 53.3749 16.7454 53.1433 16.2542 53.1433Z" fill="#434343"/>
<path d="M19.2462 52.68C19.6035 52.68 19.8982 52.7691 20.0501 52.8048V51.6197C20.0501 51.5128 20.0858 51.4861 20.184 51.4861H20.4252C20.5235 51.4861 20.5592 51.5217 20.5592 51.6197V55.3175C20.5592 55.5046 20.5145 55.558 20.3359 55.6293C20.1126 55.7184 19.7911 55.8075 19.3087 55.8075C18.4602 55.8075 18.0762 55.3887 18.0762 54.6581V53.8473C18.0762 53.0988 18.4602 52.68 19.2462 52.68ZM19.3445 53.1434C18.8264 53.1434 18.5942 53.3929 18.5942 53.8562V54.6314C18.5942 55.0947 18.8443 55.3353 19.3534 55.3353C19.6035 55.3353 19.8178 55.2907 19.9697 55.2462C20.0411 55.2194 20.0501 55.2016 20.0501 55.1393V53.277C19.9161 53.2325 19.666 53.1434 19.3445 53.1434Z" fill="#434343"/>
<path d="M22.4705 52.6799C23.3548 52.6799 23.7745 53.1878 23.7745 53.865V54.1947C23.7745 54.3194 23.721 54.3996 23.5602 54.3996H21.6845V54.6758C21.6845 55.1124 21.9525 55.3619 22.4527 55.3619C22.8635 55.3619 23.1047 55.2104 23.2565 54.9698C23.328 54.8718 23.3816 54.8629 23.4798 54.9164L23.6316 54.9966C23.7388 55.05 23.7478 55.1213 23.6852 55.2193C23.4798 55.5668 23.1136 55.8074 22.4527 55.8074C21.5595 55.8074 21.1754 55.3173 21.1754 54.6134V53.9006C21.1665 53.1254 21.6131 52.6799 22.4705 52.6799ZM22.4705 53.1165C21.9525 53.1165 21.6845 53.3927 21.6845 53.8383V54.0076H23.2565V53.8383C23.2565 53.3838 22.9886 53.1165 22.4705 53.1165Z" fill="#434343"/>
<path d="M25.793 52.6801C25.9002 52.6801 25.927 52.7157 25.927 52.8137V53.0097C25.927 53.1167 25.8913 53.1434 25.793 53.1434H25.5876C25.3018 53.1434 25.0963 53.1879 24.9266 53.2414C24.8552 53.2681 24.8463 53.3038 24.8463 53.3572V55.5848C24.8463 55.6917 24.8105 55.7184 24.7123 55.7184H24.4711C24.3729 55.7184 24.3372 55.6828 24.3372 55.5848V53.1701C24.3372 52.9919 24.3818 52.9206 24.5515 52.8493C24.7659 52.7692 25.0963 52.6801 25.6055 52.6711H25.793V52.6801Z" fill="#434343"/>
<path d="M27.6063 52.6799C28.4101 52.6799 28.7763 53.1076 28.7763 53.8204V55.5936C28.7763 55.7005 28.7406 55.7272 28.6423 55.7272H28.4012C28.294 55.7272 28.2672 55.6916 28.2672 55.5936V53.8293C28.2672 53.3749 28.0439 53.1433 27.5527 53.1433C27.2669 53.1433 27.0436 53.1967 26.8828 53.2502C26.8292 53.2769 26.8113 53.3036 26.8113 53.3571V55.5936C26.8113 55.7005 26.7756 55.7272 26.6774 55.7272H26.4362C26.338 55.7272 26.3022 55.6916 26.3022 55.5936V53.1967C26.3022 53.0185 26.3469 52.9472 26.5166 52.876C26.731 52.7779 27.0704 52.6799 27.6063 52.6799Z" fill="#434343"/>
<path d="M32.349 51.6108V51.8158C32.349 51.9227 32.3133 51.9494 32.215 51.9494C31.6613 51.9494 31.4737 52.1187 31.4737 52.6533V52.7602H32.224C32.3222 52.7602 32.3579 52.7959 32.3579 52.8939V53.0988C32.3579 53.2057 32.3222 53.2325 32.224 53.2325H31.4737V55.5758C31.4737 55.6828 31.438 55.7095 31.3308 55.7095H31.0986C30.9914 55.7095 30.9557 55.6739 30.9557 55.5758V53.2325H30.518C30.4198 53.2325 30.384 53.1968 30.384 53.0988V52.8939C30.384 52.787 30.4198 52.7602 30.518 52.7602H30.9557V52.6533C30.9557 51.8425 31.3219 51.4861 32.1614 51.4683H32.215C32.3133 51.4772 32.349 51.5128 32.349 51.6108Z" fill="#434343"/>
<path d="M33.8406 52.6799C34.7695 52.6799 35.0285 53.1878 35.0285 53.8383V55.3352C35.0285 55.5401 34.9838 55.5936 34.823 55.6648C34.6087 55.7539 34.2782 55.8163 33.8316 55.8163C32.8224 55.8163 32.5723 55.4866 32.5723 54.9075C32.5723 54.2392 32.9385 54.0076 33.8584 54.0076C34.1442 54.0076 34.4122 54.0343 34.5104 54.0521V53.8383C34.5104 53.4284 34.3675 53.1522 33.8227 53.1522C33.4744 53.1522 33.2511 53.2769 33.1082 53.4997C33.0456 53.5888 33.0188 53.6066 32.9206 53.5709L32.742 53.4908C32.6437 53.4462 32.6169 53.4017 32.6705 53.2947C32.867 52.9027 33.2511 52.6799 33.8406 52.6799ZM33.8048 54.4174C33.26 54.4174 33.0992 54.5689 33.0992 54.8986C33.0992 55.1926 33.2243 55.3797 33.7959 55.3797C34.1085 55.3797 34.305 55.353 34.4301 55.3084C34.5015 55.2817 34.5194 55.2639 34.5194 55.1837V54.462C34.4033 54.4531 34.0817 54.4174 33.8048 54.4174Z" fill="#434343"/>
<path d="M38.6458 52.6799C39.3961 52.6799 39.7355 53.0809 39.7355 53.7937V55.5936C39.7355 55.7005 39.6997 55.7272 39.6015 55.7272H39.3603C39.2531 55.7272 39.2264 55.6916 39.2264 55.5936V53.8115C39.2264 53.366 39.0209 53.1522 38.5833 53.1522C38.2707 53.1522 38.0295 53.2591 37.9045 53.3036C37.967 53.4373 37.9938 53.5977 37.9938 53.7937V55.5936C37.9938 55.7005 37.9581 55.7272 37.8598 55.7272H37.6187C37.5115 55.7272 37.4847 55.6916 37.4847 55.5936V53.8115C37.4847 53.366 37.2703 53.1522 36.8327 53.1522C36.6183 53.1522 36.4486 53.1878 36.2878 53.2413C36.2253 53.2769 36.2164 53.3126 36.2164 53.366V55.5936C36.2164 55.7005 36.1807 55.7272 36.0824 55.7272H35.8413C35.743 55.7272 35.7073 55.6916 35.7073 55.5936V53.1967C35.7073 53.0185 35.7519 52.9472 35.9216 52.867C36.136 52.7779 36.4307 52.6799 36.8952 52.6799C37.2167 52.6799 37.4579 52.7512 37.6276 52.8938C37.7705 52.8314 38.1188 52.6799 38.6458 52.6799Z" fill="#434343"/>
<path d="M40.977 51.9493V51.9939C40.977 52.1988 40.9144 52.2701 40.7001 52.2701H40.6643C40.4589 52.2701 40.3875 52.2077 40.3875 51.9939V51.9493C40.3875 51.7444 40.4589 51.6731 40.6643 51.6731H40.7001C40.9144 51.682 40.977 51.7444 40.977 51.9493ZM40.9412 52.9027V55.5847C40.9412 55.6916 40.9055 55.7183 40.8072 55.7183H40.5661C40.4589 55.7183 40.4321 55.6827 40.4321 55.5847V52.9027C40.4321 52.7958 40.4678 52.769 40.5661 52.769H40.8072C40.9055 52.7601 40.9412 52.7958 40.9412 52.9027Z" fill="#434343"/>
<path d="M42.0488 55.7273H41.8166C41.7094 55.7273 41.6826 55.6917 41.6826 55.5937V51.6197C41.6826 51.5128 41.7183 51.4861 41.8166 51.4861H42.0488C42.156 51.4861 42.1828 51.5217 42.1828 51.6197V55.5937C42.1917 55.6917 42.156 55.7273 42.0488 55.7273Z" fill="#434343"/>
<path d="M45.3891 52.9028V55.8699C45.3891 56.6183 45.0408 57.1084 44.1476 57.1084C43.5314 57.1084 43.183 56.8767 42.9776 56.5203C42.9151 56.4223 42.9329 56.351 43.0312 56.3065L43.2009 56.2174C43.3081 56.1639 43.3527 56.1728 43.4242 56.2708C43.5582 56.5025 43.7547 56.654 44.1387 56.654C44.6389 56.654 44.8711 56.3778 44.8711 55.8966V55.5847C44.6835 55.6382 44.4245 55.7095 44.0673 55.7095C43.2634 55.7095 42.8972 55.2907 42.8972 54.569V52.9028C42.8972 52.7959 42.9329 52.7691 43.0312 52.7691H43.2723C43.3706 52.7691 43.4063 52.8048 43.4063 52.9028V54.5512C43.4063 55.0056 43.6385 55.2373 44.1298 55.2373C44.4513 55.2373 44.7014 55.166 44.8622 55.1125V52.9028C44.8622 52.7959 44.8979 52.7691 44.9962 52.7691H45.2284C45.3534 52.7602 45.3891 52.7959 45.3891 52.9028Z" fill="#434343"/>
<path d="M52.088 52.6799C52.8918 52.6799 53.258 53.1076 53.258 53.8204V55.5936C53.258 55.7005 53.2223 55.7272 53.124 55.7272H52.8829C52.7757 55.7272 52.7489 55.6916 52.7489 55.5936V53.8293C52.7489 53.3749 52.5256 53.1433 52.0344 53.1433C51.7486 53.1433 51.5253 53.1967 51.3645 53.2502C51.3109 53.2769 51.293 53.3036 51.293 53.3571V55.5936C51.293 55.7005 51.2573 55.7272 51.1591 55.7272H50.9179C50.8197 55.7272 50.7839 55.6916 50.7839 55.5936V53.1967C50.7839 53.0185 50.8286 52.9472 50.9983 52.876C51.2127 52.7779 51.5521 52.6799 52.088 52.6799Z" fill="#434343"/>
<path d="M55.0532 52.6799C55.9821 52.6799 56.2411 53.1878 56.2411 53.8383V55.3352C56.2411 55.5401 56.1965 55.5936 56.0357 55.6648C55.8213 55.7539 55.4909 55.8163 55.0443 55.8163C54.035 55.8163 53.7849 55.4866 53.7849 54.9075C53.7849 54.2392 54.1511 54.0076 55.0711 54.0076C55.3569 54.0076 55.6248 54.0343 55.7231 54.0521V53.8383C55.7231 53.4284 55.5802 53.1522 55.0353 53.1522C54.687 53.1522 54.4637 53.2769 54.3208 53.4997C54.2583 53.5888 54.2315 53.6066 54.1332 53.5709L53.9546 53.4908C53.8564 53.4462 53.8296 53.4017 53.8832 53.2947C54.0797 52.9027 54.4637 52.6799 55.0532 52.6799ZM55.0175 54.4174C54.4727 54.4174 54.3119 54.5689 54.3119 54.8986C54.3119 55.1926 54.4369 55.3797 55.0085 55.3797C55.3212 55.3797 55.5177 55.353 55.6427 55.3084C55.7142 55.2817 55.732 55.2639 55.732 55.1837V54.462C55.6159 54.4531 55.2944 54.4174 55.0175 54.4174Z" fill="#434343"/>
<path d="M58.2239 52.6799C59.0278 52.6799 59.394 53.1076 59.394 53.8204V55.5936C59.394 55.7005 59.3583 55.7272 59.26 55.7272H59.0189C58.9117 55.7272 58.8849 55.6916 58.8849 55.5936V53.8293C58.8849 53.3749 58.6616 53.1433 58.1704 53.1433C57.8845 53.1433 57.6612 53.1967 57.5005 53.2502C57.4469 53.2769 57.429 53.3036 57.429 53.3571V55.5936C57.429 55.7005 57.3933 55.7272 57.2951 55.7272H57.0539C56.9556 55.7272 56.9199 55.6916 56.9199 55.5936V53.1967C56.9199 53.0185 56.9646 52.9472 57.1343 52.876C57.3486 52.7779 57.688 52.6799 58.2239 52.6799Z" fill="#434343"/>
<path d="M61.2698 52.6799C61.9665 52.6799 62.3416 52.9918 62.4845 53.4462C62.5202 53.5531 62.4935 53.6066 62.3952 53.6422L62.1898 53.7046C62.0826 53.7492 62.0379 53.7135 61.9933 53.6155C61.8861 53.3036 61.6717 53.1344 61.243 53.1344C60.7428 53.1344 60.4928 53.3838 60.4928 53.8115V54.6758C60.4928 55.1035 60.7428 55.3619 61.243 55.3619C61.6539 55.3619 61.895 55.1837 61.9933 54.8629C62.0379 54.756 62.0826 54.7382 62.1898 54.7738L62.3952 54.8273C62.5024 54.8629 62.5292 54.9164 62.4935 55.0233C62.3059 55.5312 61.9218 55.8163 61.2341 55.8163C60.3856 55.8163 59.9836 55.3708 59.9836 54.658V53.8293C59.9836 53.1165 60.3945 52.6799 61.2698 52.6799Z" fill="#434343"/>
<path d="M64.244 52.6799C65.1282 52.6799 65.548 53.1878 65.548 53.865V54.1947C65.548 54.3194 65.4944 54.3996 65.3336 54.3996H63.458V54.6758C63.458 55.1124 63.7259 55.3619 64.2261 55.3619C64.637 55.3619 64.8781 55.2104 65.03 54.9698C65.1014 54.8718 65.155 54.8629 65.2532 54.9164L65.4051 54.9966C65.5123 55.05 65.5212 55.1213 65.4587 55.2193C65.2532 55.5668 64.887 55.8074 64.2261 55.8074C63.3329 55.8074 62.9489 55.3173 62.9489 54.6134V53.9006C62.9399 53.1254 63.3954 52.6799 64.244 52.6799ZM64.244 53.1165C63.7259 53.1165 63.458 53.3927 63.458 53.8383V54.0076H65.03V53.8383C65.03 53.3838 64.7709 53.1165 64.244 53.1165Z" fill="#434343"/>
<path d="M48.9887 51.6196V51.8245C48.9887 51.9315 48.9529 51.9582 48.8547 51.9582C48.3009 51.9582 48.1133 52.1275 48.1133 52.6621V52.769H48.8636C48.9619 52.769 48.9976 52.8047 48.9976 52.9027V53.1076C48.9976 53.2145 48.9619 53.2413 48.8636 53.2413H48.1133V55.5846C48.1133 55.6916 48.0776 55.7183 47.9704 55.7183H47.7382C47.631 55.7183 47.5953 55.6827 47.5953 55.5846V53.2413H47.1577C47.0594 53.2413 47.0237 53.2056 47.0237 53.1076V52.9027C47.0237 52.7958 47.0594 52.769 47.1577 52.769H47.5953V52.6621C47.5953 51.8513 47.9615 51.4949 48.8011 51.4771H48.8547C48.9529 51.4771 48.9887 51.5127 48.9887 51.6196Z" fill="#434343"/>
<path d="M50.1141 51.9583V52.0029C50.1141 52.2078 50.0516 52.2791 49.8373 52.2791H49.8015C49.5961 52.2791 49.5247 52.2167 49.5247 52.0029V51.9583C49.5247 51.7534 49.5961 51.6821 49.8015 51.6821H49.8373C50.0427 51.6821 50.1141 51.7445 50.1141 51.9583ZM50.0784 52.9028V55.5848C50.0784 55.6917 50.0427 55.7184 49.9444 55.7184H49.7033C49.5961 55.7184 49.5693 55.6828 49.5693 55.5848V52.9028C49.5693 52.7959 49.605 52.7692 49.7033 52.7692H49.9444C50.0427 52.7603 50.0784 52.7959 50.0784 52.9028Z" fill="#434343"/>
<defs>
<linearGradient id="paint0_linear" x1="24.5992" y1="14.2961" x2="51.2712" y2="14.2961" gradientUnits="userSpaceOnUse">
<stop stop-color="#890D54"/>
<stop offset="0.0855901" stop-color="#A60961"/>
<stop offset="0.1873" stop-color="#C2056E"/>
<stop offset="0.2903" stop-color="#D50277"/>
<stop offset="0.394" stop-color="#E1017C"/>
<stop offset="0.5" stop-color="#E5007E"/>
<stop offset="0.606" stop-color="#E1017C"/>
<stop offset="0.7097" stop-color="#D50277"/>
<stop offset="0.8127" stop-color="#C2056E"/>
<stop offset="0.9144" stop-color="#A60961"/>
<stop offset="1" stop-color="#890D54"/>
</linearGradient>
</defs>
</svg>
