<svg width="113" height="41" viewBox="0 0 113 41" fill="none" xmlns="http://www.w3.org/2000/svg">
<path d="M33.9241 20.7583L30.8359 11.2546L27.7432 20.7583H33.9241Z" fill="#0079C1"/>
<path d="M26.581 24.3041L25.5187 27.5987H21.4568L28.4196 6.20095H33.2499L31.2442 0.00878906L0.991211 9.83997L10.8224 40.0918L37.4061 31.4531L35.0885 24.3041H26.581Z" fill="#0079C1"/>
<path d="M67.2967 13.4756C66.8648 11.7626 65.5737 9.38784 62.1825 9.38784C58.106 9.38784 56.411 13.1749 56.411 16.8958C56.411 20.6235 58.106 24.4117 62.1825 24.4117C64.9107 24.4117 67.3808 22.397 67.3808 19.4512H62.3273V15.9042H70.8841V27.5975H67.5536V25.7623C66.2041 27.3563 63.9628 28.136 62.1825 28.136C55.6359 28.136 52.3906 22.9366 52.3906 16.8947C52.3906 10.8574 56.0655 5.65796 62.1825 5.65796C66.3477 5.65796 69.3338 7.85214 70.8841 11.9399L67.2967 13.4756Z" fill="black"/>
<path d="M93.3105 16.8969C93.3105 22.9388 89.5593 28.1382 83.3122 28.1382C77.0763 28.1382 73.324 22.9388 73.324 16.8969C73.324 10.8596 77.0774 5.66016 83.3122 5.66016C89.5593 5.66016 93.3105 10.8596 93.3105 16.8969ZM77.4285 16.8969C77.4285 20.6246 79.1594 24.4128 83.3122 24.4128C87.4762 24.4128 89.2071 20.6246 89.2071 16.8969C89.2071 13.176 87.4762 9.38892 83.3122 9.38892C79.1594 9.38779 77.4285 13.1749 77.4285 16.8969Z" fill="black"/>
<path d="M52.0249 23.8699H40.5627V18.3407H48.6472V14.7937H40.5627V9.92857H51.2475V6.20093H36.5366V16.3058L40.2048 27.5987H52.0249V23.8699Z" fill="black"/>
<path d="M108.618 6.20093V20.665L99.7025 6.20093H95.8728V27.5987H99.5387V12.9271L108.588 27.5987H112.284V6.20093H108.618Z" fill="black"/>
<path d="M99.5386 32.6926H41.8606L42.5718 34.8823H99.5386V32.6926Z" fill="black"/>
</svg>
