<svg width="70" height="49" viewBox="0 0 70 49" fill="none" xmlns="http://www.w3.org/2000/svg">
<path d="M44.3565 23.9726L42.024 0.00390625L39.6585 24.3703C41.1915 24.2024 42.7575 24.069 44.3565 23.9726Z" fill="#FCCA12"/>
<path d="M50.0517 23.7963L50.0599 0.00378177L42.0239 0.000488281V0.00378177L44.3564 23.9725C46.2191 23.8589 48.1231 23.7996 50.0517 23.7963Z" fill="#59C247"/>
<path d="M39.6585 24.3702L42.0239 0.00378177V0.000488281L21.0232 0.00378177L21.0315 28.9375C25.9684 26.7778 32.389 25.1713 39.6585 24.3702Z" fill="#176FC1"/>
<path d="M32.455 35.2224C32.7434 35.2743 33.7819 35.5773 33.7819 36.3126V48.1002H37.293V34.8025H32.455V35.2224Z" fill="#176FC1"/>
<path d="M4.87698 34.8025V35.2224C5.29732 35.3105 6.22045 35.5682 5.84955 36.3974L0.615845 48.1002H3.37693L5.01711 44.4526H10.8113L12.2454 48.1002H15.8801L10.6876 34.8025H4.87698ZM5.75889 42.8009L8.10787 37.5682L10.1684 42.8009H5.75889Z" fill="#176FC1"/>
<path d="M58.6564 34.8025V35.2224C59.0767 35.3105 59.9998 35.5682 59.6289 36.3974L54.3953 48.1002H57.1563L58.7965 44.4526H64.5907L66.0248 48.1002H69.6595L64.467 34.8025H58.6564ZM59.5383 42.8009L61.8873 37.5682L63.9395 42.8009H59.5383Z" fill="#176FC1"/>
<path d="M49.3264 48.1002L54.8732 34.8025H52.244L48.1807 44.5538L44.3069 34.8025H39.3782V35.2224C39.9469 35.3319 40.5898 35.5773 40.8783 36.3126L45.5597 48.1002H49.3264Z" fill="#176FC1"/>
<path d="M25.0123 48.1002L30.5592 34.8025H27.93L23.8666 44.5538L19.9929 34.8025H15.0641V35.2224C15.6328 35.3319 16.2757 35.5773 16.5642 36.3126L21.2457 48.1002H25.0123Z" fill="#176FC1"/>
</svg>
