<svg width="105" height="41" viewBox="0 0 105 41" fill="none" xmlns="http://www.w3.org/2000/svg">
<path fill-rule="evenodd" clip-rule="evenodd" d="M34.5393 0.156738V3.29065H39.8147V17.8961H43.3999V3.29065H48.7043V0.156738H34.5393Z" fill="#6D5560"/>
<path fill-rule="evenodd" clip-rule="evenodd" d="M50.0351 0.0090332H53.6202V6.63178H53.7388C54.391 5.74508 55.5174 5.15355 57.2356 5.15355C60.2586 5.15355 62.1849 7.31203 62.1849 10.6826V17.8667H58.6283V11.0073C58.6283 9.46994 57.6506 8.25789 56.1394 8.25789C54.5991 8.25789 53.7092 9.46994 53.6202 10.6234V17.8963H50.0351V0.0090332Z" fill="#6D5560"/>
<path fill-rule="evenodd" clip-rule="evenodd" d="M66.9124 10.2387H71.8908C71.7426 8.73084 70.9131 7.84356 69.4606 7.84356C68.1569 7.84356 67.2088 8.61254 66.9124 10.2387ZM74.7354 16.7431C74.7354 16.7431 73.2242 18.2509 70.054 18.2509C65.8749 18.2509 63.386 15.4423 63.386 11.6873C63.386 7.96186 65.8749 5.18286 69.5495 5.18286C73.1951 5.18286 75.3579 7.63653 75.3579 11.362C75.3579 11.7169 75.3283 12.338 75.3283 12.338H66.8235C67.031 14.4663 68.3051 15.4423 70.2906 15.4423C72.2465 15.4423 73.4909 14.4072 73.4909 14.4072L74.7354 16.7431Z" fill="#6D5560"/>
<path fill-rule="evenodd" clip-rule="evenodd" d="M46.3199 32.1979H38.5556V36.6036H47.7713V39.7375H34.9705V21.9976H47.7713V25.1315H38.5556V29.3006H46.3199V32.1979Z" fill="#6D5560"/>
<path fill-rule="evenodd" clip-rule="evenodd" d="M52.7482 33.4102L48.7771 27.3198H52.7778L55.0301 31.2221H55.1185L57.3708 27.3198H61.3419L57.1639 33.4102L61.4901 39.7372H57.4894L55.1185 35.5391H55.0301L52.5999 39.7372H48.6294L52.7482 33.4102Z" fill="#6D5560"/>
<path fill-rule="evenodd" clip-rule="evenodd" d="M64.8502 32.0797H69.8285C69.6803 30.5719 68.8503 29.6852 67.3983 29.6852C66.0946 29.6852 65.1466 30.4536 64.8502 32.0797ZM72.6731 38.5842C72.6731 38.5842 71.1619 40.092 67.9912 40.092C63.8126 40.092 61.3237 37.2834 61.3237 33.5284C61.3237 29.8035 63.8126 27.0239 67.4873 27.0239C71.1323 27.0239 73.2956 29.4776 73.2956 33.203C73.2956 33.5579 73.266 34.179 73.266 34.179H64.7612C64.9687 36.3074 66.2428 37.2834 68.2283 37.2834C70.1842 37.2834 71.4287 36.2488 71.4287 36.2488L72.6731 38.5842Z" fill="#6D5560"/>
<path fill-rule="evenodd" clip-rule="evenodd" d="M76.2289 27.3195V23.5349H79.7843V27.3195H82.837V30.0689H79.7843V35.6275C79.7843 36.4852 80.1993 36.9874 81.1183 36.9874C81.8292 36.9874 82.4517 36.5734 82.4517 36.5734L83.459 39.0276C82.9254 39.4121 81.6809 40.0326 80.2592 40.0326C77.3844 40.0326 76.2289 38.2296 76.2289 35.7458V30.0689H74.0655V27.3195H76.2289Z" fill="#6D5560"/>
<path fill-rule="evenodd" clip-rule="evenodd" d="M87.4298 32.0797H92.4076C92.2599 30.5719 91.4299 29.6852 89.9779 29.6852C88.6742 29.6852 87.7262 30.4536 87.4298 32.0797ZM95.2528 38.5842C95.2528 38.5842 93.7415 40.092 90.5708 40.092C86.3922 40.092 83.9034 37.2834 83.9034 33.5284C83.9034 29.8035 86.3922 27.0239 90.0669 27.0239C93.7119 27.0239 95.8753 29.4776 95.8753 33.203C95.8753 33.5579 95.8456 34.179 95.8456 34.179H87.3408C87.5483 36.3074 88.8224 37.2834 90.808 37.2834C92.7639 37.2834 94.0083 36.2488 94.0083 36.2488L95.2528 38.5842Z" fill="#6D5560"/>
<path fill-rule="evenodd" clip-rule="evenodd" d="M104.558 30.3059H103.905C102.246 30.3059 101.061 31.4588 101.061 33.3215V39.7372H97.5048V27.3198H99.7269L100.231 29.153H100.409C101.061 27.9403 102.246 27.3198 103.876 27.3198H104.558V30.3059Z" fill="#6D5560"/>
<path fill-rule="evenodd" clip-rule="evenodd" d="M28.7904 5.68452V0.00878906H0.348328V39.7377H28.7904V34.062H6.03698V5.68452H28.7904Z" fill="#FFD600"/>
<path fill-rule="evenodd" clip-rule="evenodd" d="M23.107 19.9406L11.7396 13.3196V26.5628L23.107 19.9406Z" fill="#FFD600"/>
</svg>
