<svg width="86" height="58" viewBox="0 0 86 58" fill="none" xmlns="http://www.w3.org/2000/svg">
<path d="M6.21644 41.2791C5.54372 41.5242 5.09297 42.2426 5.09297 43.2164V53.6286C5.09297 55.1677 5.39006 55.8759 6.87891 55.8759C9.0917 55.8759 11.8338 54.8033 12.9914 52.5425C12.5953 54.2892 12.0387 56.5467 12.0387 56.5467H1.86598C2.50796 56.2164 2.96896 55.675 2.96896 54.6161V43.2267C2.96896 41.96 2.25868 41.4731 1.86256 41.2791H6.21644Z" fill="black"/>
<path d="M41.9011 41.2722H38.4282C39.2307 41.5821 39.76 42.3482 39.7703 43.2062V52.5425L31.5645 41.2722H28.4024C28.9317 41.5208 29.3961 41.8885 29.7581 42.3448V54.6195C29.7512 55.4775 29.2219 56.2402 28.4194 56.55H31.8923C31.0898 56.2402 30.5571 55.4707 30.5503 54.6126V43.4105L40.5557 57.1084V43.1994C40.5659 42.3482 41.0986 41.5821 41.9011 41.2722Z" fill="black"/>
<path d="M78.8221 24.2478C78.1493 24.493 77.6986 25.2046 77.6986 26.1784V36.5906C77.6986 38.1296 77.9957 38.8344 79.4845 38.8344C81.6973 38.8344 84.4394 37.7619 85.597 35.501C85.2009 37.2443 84.6443 39.5052 84.6443 39.5052H74.475C75.117 39.1749 75.578 38.6335 75.578 37.5746V26.1886C75.578 24.922 74.8677 24.4385 74.4716 24.2478H78.8221Z" fill="black"/>
<path d="M72.5523 37.4484C71.8284 35.6234 70.3566 31.6295 67.3687 23.7539C65.5383 28.5889 62.7382 35.9843 62.1645 37.4553C61.6079 38.8717 60.9727 39.1747 60.3308 39.5118H63.5475C63.0216 39.345 62.5299 38.5959 62.8611 37.731C63.0455 37.2407 64.251 34.1218 64.251 34.1218H69.0829C69.0829 34.1218 70.2234 37.0637 70.4727 37.731C70.7971 38.6231 70.5001 39.2088 69.7829 39.5118H74.41C73.867 39.2973 73.0782 38.7695 72.5523 37.4484ZM64.5173 33.4102L66.6721 27.7479L68.8063 33.4102H64.5173Z" fill="black"/>
<path d="M60.7715 24.2478C61.3486 24.4146 61.9359 25.2727 61.2871 26.335L58.0635 31.6194C58.0635 31.6194 55.4819 26.9104 55.0722 26.1341C54.6112 25.2488 55.2941 24.401 55.6288 24.2512H50.7559C51.8862 24.7722 52.6067 25.8345 53.0165 26.5699C53.6721 27.7685 56.4244 32.8111 56.4244 32.8111V37.5882C56.4244 38.5416 56.0283 39.1545 55.3283 39.5154H59.6309C58.9309 39.1715 58.545 38.5246 58.545 37.578V32.2425C58.545 32.2425 61.7208 27.016 62.3184 26.0422C62.6155 25.5655 63.3701 24.6189 64.1555 24.2478H60.7715Z" fill="black"/>
<path d="M39.8318 31.8985C39.8318 36.7471 41.8772 39.1135 45.0359 39.1135C48.1946 39.1135 50.2572 36.7369 50.2572 31.8985C50.2572 27.0602 48.1912 24.6972 45.0325 24.6972C41.8738 24.6972 39.8318 27.0466 39.8318 31.8917V31.8985ZM52.6646 31.8917C52.6646 36.9957 48.9152 39.8184 45.0325 39.8184C41.1499 39.8184 37.4004 36.9923 37.4004 31.8917C37.4004 26.7435 41.1328 23.9719 45.0325 23.9719C48.9015 23.9753 52.6646 26.7776 52.6646 31.8917Z" fill="black"/>
<path d="M15.3272 48.9027C15.3272 53.7513 17.3727 56.1177 20.5313 56.1177C23.69 56.1177 25.7526 53.7411 25.7526 48.9027C25.7526 44.0643 23.6866 41.7082 20.5279 41.7082C17.3692 41.7082 15.3272 44.0575 15.3272 48.9027ZM28.16 48.9027C28.16 54.0067 24.4106 56.8293 20.5279 56.8293C16.6453 56.8293 12.8993 53.9965 12.8993 48.9027C12.8993 43.7545 16.6316 40.9829 20.5313 40.9829C24.4003 40.9829 28.1634 43.7817 28.1634 48.9027" fill="black"/>
<path d="M59.2176 48.9027C59.2176 53.7513 61.2631 56.1177 64.4218 56.1177C67.5805 56.1177 69.643 53.7411 69.643 48.9027C69.643 44.0643 67.577 41.7082 64.4183 41.7082C61.2597 41.7082 59.2176 44.0575 59.2176 48.9027ZM72.0504 48.9027C72.0504 54.0067 68.301 56.8293 64.4183 56.8293C60.5357 56.8293 56.7897 53.9965 56.7897 48.9027C56.7897 43.7545 60.5221 40.9829 64.4218 40.9829C68.2839 40.9829 72.0504 43.7817 72.0504 48.9027Z" fill="black"/>
<path d="M30.7655 24.2441C37.7351 24.2441 38.4078 32.0278 30.506 31.9937C33.7569 32.1333 33.7842 33.468 36.8268 37.3701C37.4961 38.2315 38.2303 39.304 39.2479 39.5083H35.7819L31.3733 33.4782C30.407 32.1571 29.5874 32.2048 28.8191 32.2048C28.6756 32.1912 28.5288 32.1912 28.3854 32.2048V37.5709C28.3854 38.5379 28.7542 39.1542 29.4781 39.5083H25.1755C25.8994 39.1508 26.275 38.5039 26.275 37.5778V26.1747C26.275 25.2316 25.8789 24.5472 25.1823 24.2441H30.7655ZM28.3854 31.5375H29.724C32.4285 31.5375 33.7671 30.5841 33.7671 28.2075C33.7671 26.0283 32.6061 24.9421 30.086 24.9421C29.5191 24.9387 28.9488 24.9626 28.3854 25.0205V31.5375Z" fill="black"/>
<path d="M85.9589 41.2722H82.4861C83.2886 41.5821 83.8213 42.3482 83.8281 43.2062V52.5425L75.6155 41.2722H72.4602C72.9895 41.5208 73.4539 41.8885 73.8159 42.3448V54.6195C73.8091 55.4775 73.2798 56.2402 72.4773 56.55H75.9502C75.1477 56.2402 74.615 55.4707 74.6081 54.6126V43.4105L84.6135 57.1084V43.1994C84.6203 42.3448 85.1531 41.5787 85.9589 41.2722Z" fill="black"/>
<path d="M47.5595 41.2722C54.4403 41.2722 55.5911 46.526 55.5911 49.0218C55.5911 53.7546 52.8114 56.5432 47.959 56.5432H42.2972C42.9836 56.1687 43.4139 55.5388 43.4139 54.5888V43.1824C43.4139 42.1677 42.8539 41.4935 42.3041 41.2756H47.5595V41.2722ZM48.1844 55.8691C51.4797 55.8691 53.1802 53.8908 53.1802 49.587C53.1802 44.2413 51.3431 41.9464 47.3648 41.9464C46.9345 41.9464 46.3438 41.9668 45.5276 42.0145V52.5867C45.5276 54.9191 45.9135 55.8691 48.1844 55.8691Z" fill="black"/>
<path d="M18.6806 38.756C17.4717 38.7151 17.1063 38.4155 16.7751 38.0716C15.9999 37.2613 15.6072 35.1264 15.6619 34.3739C14.7979 34.4624 14.6818 35.4601 14.8526 35.9742C15.2487 37.2204 15.9453 38.201 15.556 38.756C15.2965 39.1237 14.2823 38.9433 14.0569 39.597C15.0233 39.5187 15.9965 39.5187 16.9663 39.597C18.5337 39.7502 18.9059 39.3212 19.944 39.4949C19.6879 38.9194 19.2133 38.7764 18.6806 38.756ZM26.5346 19.869C26.2204 18.8679 23.5876 11.8947 22.0715 7.70326C21.8632 6.45366 21.7778 5.41176 21.5695 4.82611C21.1495 3.65482 20.3572 2.74231 17.9327 2.03409C16.8161 1.70722 16.0921 1.57443 15.5082 0.992188C15.5389 1.92513 16.3209 2.4563 16.4507 2.77295C13.9306 3.96127 14.4803 6.73286 14.9243 8.16292C15.5936 10.3421 17.7449 13.0524 18.1854 15.126C18.5371 16.7807 16.9697 17.7988 16.0512 18.3164C15.4331 18.6637 14.8765 18.9633 14.3642 19.2357C17.301 18.6705 19.285 20.441 17.6151 23.3386C18.0113 20.3559 15.2043 21.1424 13.4183 22.2763C9.54254 24.7448 5.95017 32.1948 5.95017 32.1948C5.95017 32.1948 7.14194 26.4371 9.83622 22.5861C8.92446 23.5599 8.11516 24.6188 7.41512 25.7527C5.6804 28.4936 4.90865 33.4886 0.588928 34.3501C1.31628 34.9732 2.6822 35.1706 3.75104 35.1298C4.63206 35.0753 5.48234 34.8029 6.23018 34.3364C8.53176 32.8962 12.7251 30.0429 15.6311 26.7129C13.7803 29.8794 8.83568 33.3252 6.53069 34.8165C10.106 34.2036 13.8315 33.0358 14.2925 34.3739C14.6682 33.5601 17.0517 32.811 17.5434 30.0054C17.8883 30.7783 17.4068 31.7113 17.68 31.3912C19.7733 28.8579 24.9979 21.156 22.0715 16.2087C23.4374 17.6967 25.0184 19.3412 25.698 19.9711C26.0941 20.3457 26.1078 20.7815 26.1282 21.1458C26.4322 20.9586 26.7839 20.6691 26.5346 19.8724V19.869ZM20.207 6.33789C20.4084 6.26298 20.6304 6.36173 20.7124 6.55921C20.7841 6.78734 20.7363 7.0359 20.5826 7.22317C20.3333 7.20274 20.1079 7.05973 19.9884 6.83841C19.9167 6.64093 20.0123 6.41961 20.207 6.33789ZM18.2571 8.87795C17.482 8.66685 15.9897 7.96203 16.8366 5.63648C16.6692 6.77712 17.0961 7.95863 18.4244 8.40808C19.3533 7.74752 20.0499 8.80304 20.1387 8.93924C20.9241 10.1276 23.5364 15.9772 24.7452 17.6047C24.1169 16.0078 21.1187 9.21844 20.8524 8.58853C20.586 7.96203 21.2758 7.82924 21.4466 8.16973C21.7914 8.88817 25.517 17.952 26.0121 19.5149C24.916 18.4491 18.1444 11.3057 18.2571 8.87795Z" fill="#6D3583"/>
<path d="M18.6806 38.756C17.4717 38.7151 17.1063 38.4155 16.7751 38.0716C15.9999 37.2613 15.6072 35.1264 15.6619 34.3739C14.7979 34.4624 14.6818 35.4601 14.8526 35.9742C15.2487 37.2204 15.9453 38.201 15.556 38.756C15.2965 39.1237 14.2823 38.9433 14.0569 39.597C15.0233 39.5187 15.9965 39.5187 16.9663 39.597C18.5337 39.7502 18.9059 39.3212 19.944 39.4949C19.6879 38.9194 19.2133 38.7764 18.6806 38.756ZM26.5346 19.869C26.2204 18.8679 23.5876 11.8947 22.0715 7.70326C21.8632 6.45366 21.7778 5.41176 21.5695 4.82611C21.1495 3.65482 20.3572 2.74231 17.9327 2.03409C16.8161 1.70722 16.0921 1.57443 15.5082 0.992188C15.5389 1.92513 16.3209 2.4563 16.4507 2.77295C13.9306 3.96127 14.4803 6.73286 14.9243 8.16292C15.5936 10.3421 17.7449 13.0524 18.1854 15.126C18.5371 16.7807 16.9697 17.7988 16.0512 18.3164C15.4331 18.6637 14.8765 18.9633 14.3642 19.2357C17.301 18.6705 19.285 20.441 17.6151 23.3386C18.0113 20.3559 15.2043 21.1424 13.4183 22.2763C9.54254 24.7448 5.95017 32.1948 5.95017 32.1948C5.95017 32.1948 7.14194 26.4371 9.83622 22.5861C8.92446 23.5599 8.11516 24.6188 7.41512 25.7527C5.6804 28.4936 4.90865 33.4886 0.588928 34.3501C1.31628 34.9732 2.6822 35.1706 3.75104 35.1298C4.63206 35.0753 5.48234 34.8029 6.23018 34.3364C8.53176 32.8962 12.7251 30.0429 15.6311 26.7129C13.7803 29.8794 8.83568 33.3252 6.53069 34.8165C10.106 34.2036 13.8315 33.0358 14.2925 34.3739C14.6682 33.5601 17.0517 32.811 17.5434 30.0054C17.8883 30.7783 17.4068 31.7113 17.68 31.3912C19.7733 28.8579 24.9979 21.156 22.0715 16.2087C23.4374 17.6967 25.0184 19.3412 25.698 19.9711C26.0941 20.3457 26.1078 20.7815 26.1282 21.1458C26.4322 20.9586 26.7839 20.6691 26.5346 19.8724V19.869ZM20.207 6.33789C20.4084 6.26298 20.6304 6.36173 20.7124 6.55921C20.7841 6.78734 20.7363 7.0359 20.5826 7.22317C20.3333 7.20274 20.1079 7.05973 19.9884 6.83841C19.9167 6.64093 20.0123 6.41961 20.207 6.33789ZM18.2571 8.87795C17.482 8.66685 15.9897 7.96203 16.8366 5.63648C16.6692 6.77712 17.0961 7.95863 18.4244 8.40808C19.3533 7.74752 20.0499 8.80304 20.1387 8.93924C20.9241 10.1276 23.5364 15.9772 24.7452 17.6047C24.1169 16.0078 21.1187 9.21844 20.8524 8.58853C20.586 7.96203 21.2758 7.82924 21.4466 8.16973C21.7914 8.88817 25.517 17.952 26.0121 19.5149C24.916 18.4491 18.1444 11.3057 18.2571 8.87795Z" fill="url(#paint0_linear)"/>
<defs>
<linearGradient id="paint0_linear" x1="25.3211" y1="5.63028" x2="8.36725" y2="38.4332" gradientUnits="userSpaceOnUse">
<stop offset="0.48" stop-color="#494949" stop-opacity="0"/>
<stop offset="0.64" stop-color="#494949" stop-opacity="0.25"/>
<stop offset="0.96" stop-color="#494949" stop-opacity="0.91"/>
<stop offset="1" stop-color="#494949"/>
</linearGradient>
</defs>
</svg>
