<svg width="81" height="64" viewBox="0 0 81 64" fill="none" xmlns="http://www.w3.org/2000/svg">
<path d="M39.4842 63.9527C39.4577 63.9924 39.5636 63.9263 39.4842 63.9527V63.9527Z" fill="#009DD4"/>
<path d="M78.1106 11.7602C69.4503 -3.90712 49.2834 -0.84413 40.5959 11.706C32.3827 -1.15585 12.392 -4.96426 3.14883 10.3642C-10.0925 32.3337 24.8337 52.8123 39.4167 63.9665C39.4439 63.9529 39.4574 63.9529 39.471 63.9529C39.471 63.9394 39.4845 63.9258 39.5116 63.9123C51.9533 53.5984 90.5523 34.204 78.1106 11.7602ZM53.0104 32.1846H52.8749C52.5225 32.1846 52.2379 32.4692 52.2379 32.8216V46.1849C52.2379 46.5373 51.9533 46.8219 51.6009 46.8219H44.8922C44.5398 46.8219 44.2552 46.5373 44.2552 46.1849V39.1238C44.2552 38.7714 43.9706 38.4868 43.6182 38.4868H36.9094C36.5571 38.4868 36.2724 38.7714 36.2724 39.1238V46.1849C36.2724 46.5373 35.9878 46.8219 35.6355 46.8219H27.4901C27.1377 46.8219 26.8531 46.5373 26.8531 46.1849L26.9344 32.9571C26.9344 32.6048 26.6498 32.3201 26.2974 32.3201C25.7282 32.3201 25.4436 31.6289 25.8502 31.2359L39.2677 17.8184C39.5116 17.5744 39.9182 17.5744 40.1622 17.8184L44.2958 21.9521V19.2008C44.2958 18.8891 44.5533 18.6316 44.8651 18.6316H49.1614C49.4731 18.6316 49.7306 18.8891 49.7306 19.2008V27.4004L53.4441 31.1139C53.8643 31.4934 53.5797 32.1846 53.0104 32.1846Z" fill="#009DD4"/>
</svg>
